  0
SECTION
  2
HEADER
  9
$ACADVER
  1
AC1015
  9
$ACADMAINTVER
 70
     6
  9
$DWGCODEPAGE
  3
ANSI_1252
  9
$INSBASE
 10
0.0
 20
0.0
 30
0.0
  9
$EXTMIN
 10
0.0
 20
0.0
 30
0.0
  9
$EXTMAX
 10
279.4
 20
215.9
 30
0.0
  9
$LIMMIN
 10
0.0
 20
0.0
  9
$LIMMAX
 10
279.4
 20
215.9
  9
$ORTHOMODE
 70
     0
  9
$REGENMODE
 70
     1
  9
$FILLMODE
 70
     1
  9
$QTEXTMODE
 70
     0
  9
$MIRRTEXT
 70
     1
  9
$LTSCALE
 40
1.0
  9
$ATTMODE
 70
     1
  9
$TEXTSIZE
 40
3.5
  9
$TRACEWID
 40
1.0
  9
$TEXTSTYLE
  7
Standard
  9
$CLAYER
  8
0
  9
$CELTYPE
  6
ByLayer
  9
$CECOLOR
 62
   256
  9
$CELTSCALE
 40
1.0
  9
$DISPSILH
 70
     0
  9
$DIMSCALE
 40
1.0
  9
$DIMASZ
 40
3.302
  9
$DIMEXO
 40
1.0
  9
$DIMDLI
 40
3.75
  9
$DIMRND
 40
0.0
  9
$DIMDLE
 40
0.0
  9
$DIMEXE
 40
1.0
  9
$DIMTP
 40
0.0
  9
$DIMTM
 40
0.0
  9
$DIMTXT
 40
3.5
  9
$DIMCEN
 40
2.5
  9
$DIMTSZ
 40
0.0
  9
$DIMTOL
 70
     0
  9
$DIMLIM
 70
     0
  9
$DIMTIH
 70
     1
  9
$DIMTOH
 70
     1
  9
$DIMSE1
 70
     0
  9
$DIMSE2
 70
     0
  9
$DIMTAD
 70
     1
  9
$DIMZIN
 70
     1
  9
$DIMBLK
  1

  9
$DIMASO
 70
     1
  9
$DIMSHO
 70
     1
  9
$DIMPOST
  1

  9
$DIMAPOST
  1

  9
$DIMALT
 70
     0
  9
$DIMALTD
 70
     3
  9
$DIMALTF
 40
0.0393700787
  9
$DIMLFAC
 40
10.0
  9
$DIMTOFL
 70
     1
  9
$DIMTVP
 40
0.0
  9
$DIMTIX
 70
     0
  9
$DIMSOXD
 70
     0
  9
$DIMSAH
 70
     0
  9
$DIMBLK1
  1

  9
$DIMBLK2
  1

  9
$DIMSTYLE
  2
ISO-25
  9
$DIMCLRD
 70
     0
  9
$DIMCLRE
 70
     0
  9
$DIMCLRT
 70
     0
  9
$DIMTFAC
 40
1.0
  9
$DIMGAP
 40
1.524
  9
$DIMJUST
 70
     0
  9
$DIMSD1
 70
     0
  9
$DIMSD2
 70
     0
  9
$DIMTOLJ
 70
     0
  9
$DIMTZIN
 70
     1
  9
$DIMALTZ
 70
     0
  9
$DIMALTTZ
 70
     0
  9
$DIMUPT
 70
     0
  9
$DIMDEC
 70
     2
  9
$DIMTDEC
 70
     2
  9
$DIMALTU
 70
     2
  9
$DIMALTTD
 70
     3
  9
$DIMTXSTY
  7
Standard
  9
$DIMAUNIT
 70
     0
  9
$DIMADEC
 70
     2
  9
$DIMALTRND
 40
0.0
  9
$DIMAZIN
 70
     0
  9
$DIMDSEP
 70
    44
  9
$DIMATFIT
 70
     3
  9
$DIMFRAC
 70
     0
  9
$DIMLDRBLK
  1

  9
$DIMLUNIT
 70
     2
  9
$DIMLWD
 70
    -2
  9
$DIMLWE
 70
    -2
  9
$DIMTMOVE
 70
     0
  9
$LUNITS
 70
     2
  9
$LUPREC
 70
     2
  9
$SKETCHINC
 40
1.0
  9
$FILLETRAD
 40
0.0
  9
$AUNITS
 70
     0
  9
$AUPREC
 70
     2
  9
$MENU
  1
.
  9
$ELEVATION
 40
0.0
  9
$PELEVATION
 40
0.0
  9
$THICKNESS
 40
0.0
  9
$LIMCHECK
 70
     0
  9
$CHAMFERA
 40
0.0
  9
$CHAMFERB
 40
0.0
  9
$CHAMFERC
 40
0.0
  9
$CHAMFERD
 40
0.0
  9
$SKPOLY
 70
     0
  9
$TDCREATE
 40
2460802.861227766
  9
$TDUCREATE
 40
2460802.777894433
  9
$TDUPDATE
 40
2460802.861228681
  9
$TDUUPDATE
 40
2460802.777895347
  9
$TDINDWG
 40
0.0000000116
  9
$TDUSRTIMER
 40
0.0000000116
  9
$USRTIMER
 70
     1
  9
$ANGBASE
 50
0.0
  9
$ANGDIR
 70
     0
  9
$PDMODE
 70
     0
  9
$PDSIZE
 40
-1.0
  9
$PLINEWID
 40
0.0
  9
$SPLFRAME
 70
     0
  9
$SPLINETYPE
 70
     6
  9
$SPLINESEGS
 70
     8
  9
$HANDSEED
  5
198
  9
$SURFTAB1
 70
     6
  9
$SURFTAB2
 70
     6
  9
$SURFTYPE
 70
     6
  9
$SURFU
 70
     6
  9
$SURFV
 70
     6
  9
$UCSBASE
  2

  9
$UCSNAME
  2

  9
$UCSORG
 10
0.0
 20
0.0
 30
0.0
  9
$UCSXDIR
 10
1.0
 20
0.0
 30
0.0
  9
$UCSYDIR
 10
0.0
 20
1.0
 30
0.0
  9
$UCSORTHOREF
  2

  9
$UCSORTHOVIEW
 70
     0
  9
$UCSORGTOP
 10
0.0
 20
0.0
 30
0.0
  9
$UCSORGBOTTOM
 10
0.0
 20
0.0
 30
0.0
  9
$UCSORGLEFT
 10
0.0
 20
0.0
 30
0.0
  9
$UCSORGRIGHT
 10
0.0
 20
0.0
 30
0.0
  9
$UCSORGFRONT
 10
0.0
 20
0.0
 30
0.0
  9
$UCSORGBACK
 10
0.0
 20
0.0
 30
0.0
  9
$PUCSBASE
  2

  9
$PUCSNAME
  2

  9
$PUCSORG
 10
0.0
 20
0.0
 30
0.0
  9
$PUCSXDIR
 10
1.0
 20
0.0
 30
0.0
  9
$PUCSYDIR
 10
0.0
 20
1.0
 30
0.0
  9
$PUCSORTHOREF
  2

  9
$PUCSORTHOVIEW
 70
     0
  9
$PUCSORGTOP
 10
0.0
 20
0.0
 30
0.0
  9
$PUCSORGBOTTOM
 10
0.0
 20
0.0
 30
0.0
  9
$PUCSORGLEFT
 10
0.0
 20
0.0
 30
0.0
  9
$PUCSORGRIGHT
 10
0.0
 20
0.0
 30
0.0
  9
$PUCSORGFRONT
 10
0.0
 20
0.0
 30
0.0
  9
$PUCSORGBACK
 10
0.0
 20
0.0
 30
0.0
  9
$USERI1
 70
     0
  9
$USERI2
 70
     0
  9
$USERI3
 70
     0
  9
$USERI4
 70
     0
  9
$USERI5
 70
     0
  9
$USERR1
 40
0.0
  9
$USERR2
 40
0.0
  9
$USERR3
 40
0.0
  9
$USERR4
 40
0.0
  9
$USERR5
 40
0.0
  9
$WORLDVIEW
 70
     1
  9
$SHADEDGE
 70
     3
  9
$SHADEDIF
 70
    70
  9
$TILEMODE
 70
     1
  9
$MAXACTVP
 70
    64
  9
$PINSBASE
 10
0.0
 20
0.0
 30
0.0
  9
$PLIMCHECK
 70
     0
  9
$PEXTMIN
 10
1.0000000000E+20
 20
1.0000000000E+20
 30
1.0000000000E+20
  9
$PEXTMAX
 10
-1.0000000000E+20
 20
-1.0000000000E+20
 30
-1.0000000000E+20
  9
$PLIMMIN
 10
0.0
 20
0.0
  9
$PLIMMAX
 10
420.0
 20
297.0
  9
$UNITMODE
 70
     0
  9
$VISRETAIN
 70
     1
  9
$PLINEGEN
 70
     0
  9
$PSLTSCALE
 70
     1
  9
$TREEDEPTH
 70
  3020
  9
$CMLSTYLE
  2
Standard
  9
$CMLJUST
 70
     0
  9
$CMLSCALE
 40
20.0
  9
$PROXYGRAPHICS
 70
     1
  9
$MEASUREMENT
 70
     1
  9
$CELWEIGHT
370
    -1
  9
$ENDCAPS
280
     0
  9
$JOINSTYLE
280
     0
  9
$LWDISPLAY
290
     1
  9
$INSUNITS
 70
     4
  9
$HYPERLINKBASE
  1

  9
$STYLESHEET
  1

  9
$XEDIT
290
     1
  9
$CEPSNTYPE
380
     0
  9
$PSTYLEMODE
290
     1
  9
$FINGERPRINTGUID
  2
{66bb8761-a560-41b3-a7aa-3aafe829ce9e}
  9
$VERSIONGUID
  2
{FAEB1C32-E019-11D5-929B-00C0DF256EC4}
  9
$EXTNAMES
290
     1
  9
$PSVPSCALE
 40
0.0
  9
$OLESTARTUP
290
     0
  0
ENDSEC
  0
SECTION
  2
CLASSES
  0
CLASS
  1
ACDBDICTIONARYWDFLT
  2
AcDbDictionaryWithDefault
  3
ObjectDBX Classes
 90
        0
280
     0
281
     0
  0
CLASS
  1
VISUALSTYLE
  2
AcDbVisualStyle
  3
ObjectDBX Classes
 90
     4095
280
     0
281
     0
  0
CLASS
  1
MATERIAL
  2
AcDbMaterial
  3
ObjectDBX Classes
 90
     1153
280
     0
281
     0
  0
CLASS
  1
SCALE
  2
AcDbScale
  3
ObjectDBX Classes
 90
     1153
280
     0
281
     0
  0
CLASS
  1
TABLESTYLE
  2
AcDbTableStyle
  3
ObjectDBX Classes
 90
     4095
280
     0
281
     0
  0
CLASS
  1
MLEADERSTYLE
  2
AcDbMLeaderStyle
  3
ACDB_MLEADERSTYLE_CLASS
 90
     4095
280
     0
281
     0
  0
CLASS
  1
SUN
  2
AcDbSun
  3
SCENEOE
 90
     1153
280
     0
281
     0
  0
CLASS
  1
ACDBPLACEHOLDER
  2
AcDbPlaceHolder
  3
ObjectDBX Classes
 90
        0
280
     0
281
     0
  0
CLASS
  1
LAYOUT
  2
AcDbLayout
  3
ObjectDBX Classes
 90
        0
280
     0
281
     0
  0
ENDSEC
  0
SECTION
  2
TABLES
  0
TABLE
  2
VPORT
  5
8
330
0
100
AcDbSymbolTable
 70
     1
  0
VPORT
  5
29
330
8
100
AcDbSymbolTableRecord
100
AcDbViewportTableRecord
  2
*Active
 70
     0
 10
0.0
 20
0.0
 11
1.0
 21
1.0
 12
139.7
 22
107.95
 13
0.0
 23
0.0
 14
10.0
 24
10.0
 15
10.0
 25
10.0
 16
0.0
 26
0.0
 36
1.0
 17
0.0
 27
0.0
 37
0.0
 40
215.9
 41
1.2941176471
 42
50.0
 43
0.0
 44
0.0
 50
0.0
 51
0.0
 71
     0
 72
  2000
 73
     1
 74
     3
 75
     0
 76
     0
 77
     0
 78
     0
281
     0
 65
     1
110
0.0
120
0.0
130
0.0
111
1.0
121
0.0
131
0.0
112
0.0
122
1.0
132
0.0
 79
     0
146
0.0
  0
ENDTAB
  0
TABLE
  2
LTYPE
  5
5
330
0
100
AcDbSymbolTable
 70
     6
  0
LTYPE
  5
14
330
5
100
AcDbSymbolTableRecord
100
AcDbLinetypeTableRecord
  2
ByBlock
 70
     0
  3

 72
    65
 73
     0
 40
0.0
  0
LTYPE
  5
15
330
5
100
AcDbSymbolTableRecord
100
AcDbLinetypeTableRecord
  2
ByLayer
 70
     0
  3

 72
    65
 73
     0
 40
0.0
  0
LTYPE
  5
16
330
5
100
AcDbSymbolTableRecord
100
AcDbLinetypeTableRecord
  2
Continuous
 70
     0
  3
Solid line
 72
    65
 73
     0
 40
0.0
  0
LTYPE
  5
5E
330
5
100
AcDbSymbolTableRecord
100
AcDbLinetypeTableRecord
  2
HIDDEN
 70
     0
  3
Hidden __ __ __ __ __ __ __ __ __ __ __ __ __ __
 72
    65
 73
     2
 40
1.905
 49
1.27
 74
     0
 49
-0.635
 74
     0
  0
LTYPE
  5
5F
330
5
100
AcDbSymbolTableRecord
100
AcDbLinetypeTableRecord
  2
PHANTOM
 70
     0
  3
Phantom ______  __  __  ______  __  __  ______
 72
    65
 73
     6
 40
12.7
 49
6.35
 74
     0
 49
-1.27
 74
     0
 49
1.27
 74
     0
 49
-1.27
 74
     0
 49
1.27
 74
     0
 49
-1.27
 74
     0
  0
LTYPE
  5
60
330
5
100
AcDbSymbolTableRecord
100
AcDbLinetypeTableRecord
  2
CENTER
 70
     0
  3
Center ____ _ ____ _ ____ _ ____ _ ____ _ ____
 72
    65
 73
     4
 40
10.16
 49
6.35
 74
     0
 49
-1.27
 74
     0
 49
1.27
 74
     0
 49
-1.27
 74
     0
  0
LTYPE
  5
61
330
5
100
AcDbSymbolTableRecord
100
AcDbLinetypeTableRecord
  2
CENTERX2
 70
     0
  3
Center (2x) ________  __  ________  __  _____
 72
    65
 73
     4
 40
20.32
 49
12.7
 74
     0
 49
-2.54
 74
     0
 49
2.54
 74
     0
 49
-2.54
 74
     0
  0
LTYPE
  5
62
330
5
100
AcDbSymbolTableRecord
100
AcDbLinetypeTableRecord
  2
DOT2
 70
     0
  3
Dot (.5x) ........................................
 72
    65
 73
     2
 40
0.635
 49
0.0
 74
     0
 49
-0.635
 74
     0
  0
ENDTAB
  0
TABLE
  2
LAYER
  5
2
330
0
100
AcDbSymbolTable
 70
     1
  0
LAYER
  5
10
330
2
100
AcDbSymbolTableRecord
100
AcDbLayerTableRecord
  2
0
 70
     0
 62
     7
  6
Continuous
370
    -3
390
F
  0
ENDTAB
  0
TABLE
  2
STYLE
  5
3
330
0
100
AcDbSymbolTable
 70
     2
  0
STYLE
  5
11
330
3
100
AcDbSymbolTableRecord
100
AcDbTextStyleTableRecord
  2
Standard
 70
     0
 40
0.0
 41
1.0
 50
0.0
 71
     0
 42
3.5
  3
txt
  4

  0
STYLE
  5
63
330
3
100
AcDbSymbolTableRecord
100
AcDbTextStyleTableRecord
  2
SLDTEXTSTYLE0
 70
     0
 40
0.0
 41
0.75
 50
0.0
 71
     0
 42
3.5
  3
TXT
  4

  0
ENDTAB
  0
TABLE
  2
VIEW
  5
6
330
0
100
AcDbSymbolTable
 70
     0
  0
ENDTAB
  0
TABLE
  2
UCS
  5
7
330
0
100
AcDbSymbolTable
 70
     0
  0
ENDTAB
  0
TABLE
  2
APPID
  5
9
330
0
100
AcDbSymbolTable
 70
     1
  0
APPID
  5
12
330
9
100
AcDbSymbolTableRecord
100
AcDbRegAppTableRecord
  2
ACAD
 70
     0
  0
ENDTAB
  0
TABLE
  2
DIMSTYLE
  5
A
330
0
100
AcDbSymbolTable
 70
     4
100
AcDbDimStyleTable
  0
DIMSTYLE
105
27
330
A
100
AcDbSymbolTableRecord
100
AcDbDimStyleTableRecord
  2
ISO-25
 70
     0
 41
2.5
 42
0.625
 43
3.75
 44
1.25
 73
     0
 74
     0
 77
     1
 78
     8
140
2.5
141
2.5
143
0.0393700787
147
0.625
171
     3
172
     1
178
     0
271
     2
272
     2
274
     3
278
    44
283
     0
284
     8
340
11
  0
DIMSTYLE
105
9A
102
{ACAD_REACTORS
330
99
102
}
330
A
100
AcDbSymbolTableRecord
100
AcDbDimStyleTableRecord
  2
SLDDIMSTYLE0
 70
     0
 41
3.302
 44
0.0
 45
0.000000001
 73
     0
 74
     0
 77
     1
 78
    12
 79
     3
140
3.5
144
10.0
147
0.875
173
     1
178
     0
271
     2
272
     2
276
     2
284
    12
340
63
  0
DIMSTYLE
105
A5
102
{ACAD_REACTORS
330
A4
330
B1
330
BD
330
CA
330
D7
330
117
330
124
330
162
330
16E
102
}
330
A
100
AcDbSymbolTableRecord
100
AcDbDimStyleTableRecord
  2
SLDDIMSTYLE1
 70
     0
 41
3.302
 44
0.0
 45
0.000000001
 73
     0
 74
     0
 77
     1
 78
    12
 79
     3
140
3.5
144
10.0
147
0.875
172
     1
173
     1
178
     0
271
     2
272
     2
276
     2
284
    12
289
     0
340
63
  0
DIMSTYLE
105
17B
102
{ACAD_REACTORS
330
17A
330
183
102
}
330
A
100
AcDbSymbolTableRecord
100
AcDbDimStyleTableRecord
  2
SLDDIMSTYLE2
 70
     0
 41
3.302
 44
0.0
 45
0.000000001
 73
     0
 74
     0
 77
     1
 78
    12
 79
     3
140
3.5
141
0.0
144
10.0
147
0.875
173
     1
178
     0
271
     2
272
     2
276
     2
284
    12
340
63
  0
ENDTAB
  0
TABLE
  2
BLOCK_RECORD
  5
1
330
0
100
AcDbSymbolTable
 70
    14
  0
BLOCK_RECORD
  5
1F
330
1
100
AcDbSymbolTableRecord
100
AcDbBlockTableRecord
  2
*Model_Space
340
22
  0
BLOCK_RECORD
  5
1B
330
1
100
AcDbSymbolTableRecord
100
AcDbBlockTableRecord
  2
*Paper_Space
340
1E
  0
BLOCK_RECORD
  5
23
330
1
100
AcDbSymbolTableRecord
100
AcDbBlockTableRecord
  2
*Paper_Space0
340
26
  0
BLOCK_RECORD
  5
9B
330
1
100
AcDbSymbolTableRecord
100
AcDbBlockTableRecord
  2
_D
340
0
  0
BLOCK_RECORD
  5
A6
330
1
100
AcDbSymbolTableRecord
100
AcDbBlockTableRecord
  2
_D_1
340
0
  0
BLOCK_RECORD
  5
B2
330
1
100
AcDbSymbolTableRecord
100
AcDbBlockTableRecord
  2
_D_2
340
0
  0
BLOCK_RECORD
  5
BE
330
1
100
AcDbSymbolTableRecord
100
AcDbBlockTableRecord
  2
_D_3
340
0
  0
BLOCK_RECORD
  5
CB
330
1
100
AcDbSymbolTableRecord
100
AcDbBlockTableRecord
  2
_D_4
340
0
  0
BLOCK_RECORD
  5
D8
330
1
100
AcDbSymbolTableRecord
100
AcDbBlockTableRecord
  2
_D_5
340
0
  0
BLOCK_RECORD
  5
118
330
1
100
AcDbSymbolTableRecord
100
AcDbBlockTableRecord
  2
_D_6
340
0
  0
BLOCK_RECORD
  5
125
330
1
100
AcDbSymbolTableRecord
100
AcDbBlockTableRecord
  2
_D_7
340
0
  0
BLOCK_RECORD
  5
163
330
1
100
AcDbSymbolTableRecord
100
AcDbBlockTableRecord
  2
_D_8
340
0
  0
BLOCK_RECORD
  5
16F
330
1
100
AcDbSymbolTableRecord
100
AcDbBlockTableRecord
  2
_D_9
340
0
  0
BLOCK_RECORD
  5
17C
330
1
100
AcDbSymbolTableRecord
100
AcDbBlockTableRecord
  2
_D_10
340
0
  0
BLOCK_RECORD
  5
184
330
1
100
AcDbSymbolTableRecord
100
AcDbBlockTableRecord
  2
_D_11
340
0
  0
BLOCK_RECORD
  5
18B
330
1
100
AcDbSymbolTableRecord
100
AcDbBlockTableRecord
  2
SW_CENTERMARKSYMBOL_0
340
0
102
{BLKREFS
331
196
102
}
  0
ENDTAB
  0
ENDSEC
  0
SECTION
  2
BLOCKS
  0
BLOCK
  5
20
330
1F
100
AcDbEntity
  8
0
100
AcDbBlockBegin
  2
*Model_Space
 70
     0
 10
0.0
 20
0.0
 30
0.0
  3
*Model_Space
  1

  0
ENDBLK
  5
21
330
1F
100
AcDbEntity
  8
0
100
AcDbBlockEnd
  0
BLOCK
  5
1C
330
1B
100
AcDbEntity
 67
     1
  8
0
100
AcDbBlockBegin
  2
*Paper_Space
 70
     0
 10
0.0
 20
0.0
 30
0.0
  3
*Paper_Space
  1

  0
ENDBLK
  5
1D
330
1B
100
AcDbEntity
 67
     1
  8
0
100
AcDbBlockEnd
  0
BLOCK
  5
24
330
23
100
AcDbEntity
  8
0
100
AcDbBlockBegin
  2
*Paper_Space0
 70
     0
 10
0.0
 20
0.0
 30
0.0
  3
*Paper_Space0
  1

  0
ENDBLK
  5
25
330
23
100
AcDbEntity
  8
0
100
AcDbBlockEnd
  0
BLOCK
  5
9C
330
9B
100
AcDbEntity
  8
0
100
AcDbBlockBegin
  2
_D
 70
     0
 10
0.0
 20
0.0
 30
0.0
  3
_D
  1

  0
SOLID
  5
9E
330
9B
100
AcDbEntity
  8
0
  6
Continuous
 62
     7
370
    18
100
AcDbTrace
 10
46.4494999274
 20
80.9808962976
 30
0.0
 11
49.7514999274
 21
80.4728962976
 31
0.0
 12
49.7514999274
 22
81.4888962976
 32
0.0
 13
49.7514999274
 23
81.4888962976
 33
0.0
  0
SOLID
  5
9F
330
9B
100
AcDbEntity
  8
0
  6
Continuous
 62
     7
370
    18
100
AcDbTrace
 10
80.4494999274
 20
80.9808962976
 30
0.0
 11
77.1474999274
 21
81.4888962976
 31
0.0
 12
77.1474999274
 22
80.4728962976
 32
0.0
 13
77.1474999274
 23
80.4728962976
 33
0.0
  0
LINE
  5
A0
330
9B
100
AcDbEntity
  8
0
  6
Continuous
 62
     7
370
     0
100
AcDbLine
 10
46.4494999274
 20
99.6809470394
 30
0.0
 11
46.4494999274
 21
79.9808962976
 31
0.0
  0
LINE
  5
A1
330
9B
100
AcDbEntity
  8
0
  6
Continuous
 62
     7
370
     0
100
AcDbLine
 10
80.4494999274
 20
99.6809470394
 30
0.0
 11
80.4494999274
 21
79.9808962976
 31
0.0
  0
LINE
  5
A2
330
9B
100
AcDbEntity
  8
0
  6
Continuous
 62
     7
370
     0
100
AcDbLine
 10
46.4494999274
 20
80.9808962976
 30
0.0
 11
80.4494999274
 21
80.9808962976
 31
0.0
  0
MTEXT
  5
A3
330
9B
100
AcDbEntity
  8
0
  6
Continuous
 62
     7
370
    18
100
AcDbMText
 10
54.4801489623
 20
85.4926332122
 30
0.0
 40
3.5
 41
0.0
 71
     1
 72
     1
  1
340,00
  7
SLDTEXTSTYLE0
 73
     1
 44
1.0
  0
ENDBLK
  5
9D
330
9B
100
AcDbEntity
  8
0
100
AcDbBlockEnd
  0
BLOCK
  5
A7
330
A6
100
AcDbEntity
  8
0
100
AcDbBlockBegin
  2
_D_1
 70
     0
 10
0.0
 20
0.0
 30
0.0
  3
_D_1
  1

  0
SOLID
  5
A9
330
A6
100
AcDbEntity
  8
0
  6
Continuous
 62
     7
370
    18
100
AcDbTrace
 10
46.9494999274
 20
90.9996035276
 30
0.0
 11
43.6474999274
 21
91.5076035276
 31
0.0
 12
43.6474999274
 22
90.4916035276
 32
0.0
 13
43.6474999274
 23
90.4916035276
 33
0.0
  0
SOLID
  5
AA
330
A6
100
AcDbEntity
  8
0
  6
Continuous
 62
     7
370
    18
100
AcDbTrace
 10
49.4494999274
 20
90.9996035276
 30
0.0
 11
52.7514999274
 21
90.4916035276
 31
0.0
 12
52.7514999274
 22
91.5076035276
 32
0.0
 13
52.7514999274
 23
91.5076035276
 33
0.0
  0
LINE
  5
AB
330
A6
100
AcDbEntity
  8
0
  6
Continuous
 62
     7
370
     0
100
AcDbLine
 10
46.9494999274
 20
94.6809470394
 30
0.0
 11
46.9494999274
 21
89.9996035276
 31
0.0
  0
LINE
  5
AC
330
A6
100
AcDbEntity
  8
0
  6
Continuous
 62
     7
370
     0
100
AcDbLine
 10
49.4494999274
 20
94.6809470394
 30
0.0
 11
49.4494999274
 21
89.9996035276
 31
0.0
  0
LINE
  5
AD
330
A6
100
AcDbEntity
  8
0
  6
Continuous
 62
     7
370
     0
100
AcDbLine
 10
46.9494999274
 20
90.9996035276
 30
0.0
 11
40.5994999274
 21
90.9996035276
 31
0.0
  0
LINE
  5
AE
330
A6
100
AcDbEntity
  8
0
  6
Continuous
 62
     7
370
     0
100
AcDbLine
 10
46.9494999274
 20
90.9996035276
 30
0.0
 11
49.4494999274
 21
90.9996035276
 31
0.0
  0
LINE
  5
AF
330
A6
100
AcDbEntity
  8
0
  6
Continuous
 62
     7
370
     0
100
AcDbLine
 10
49.4494999274
 20
90.9996035276
 30
0.0
 11
55.7994999274
 21
90.9996035276
 31
0.0
  0
MTEXT
  5
B0
330
A6
100
AcDbEntity
  8
0
  6
Continuous
 62
     7
370
    18
100
AcDbMText
 10
43.2073684887
 20
95.5113404422
 30
0.0
 40
3.5
 41
0.0
 71
     1
 72
     1
  1
25,00
  7
SLDTEXTSTYLE0
 73
     1
 44
1.0
  0
ENDBLK
  5
A8
330
A6
100
AcDbEntity
  8
0
100
AcDbBlockEnd
  0
BLOCK
  5
B3
330
B2
100
AcDbEntity
  8
0
100
AcDbBlockBegin
  2
_D_2
 70
     0
 10
0.0
 20
0.0
 30
0.0
  3
_D_2
  1

  0
SOLID
  5
B5
330
B2
100
AcDbEntity
  8
0
  6
Continuous
 62
     7
370
    18
100
AcDbTrace
 10
80.4494999274
 20
90.4530751341
 30
0.0
 11
83.7514999274
 21
89.9450751341
 31
0.0
 12
83.7514999274
 22
90.9610751341
 32
0.0
 13
83.7514999274
 23
90.9610751341
 33
0.0
  0
SOLID
  5
B6
330
B2
100
AcDbEntity
  8
0
  6
Continuous
 62
     7
370
    18
100
AcDbTrace
 10
75.4494999274
 20
90.4530751341
 30
0.0
 11
72.1474999274
 21
90.9610751341
 31
0.0
 12
72.1474999274
 22
89.9450751341
 32
0.0
 13
72.1474999274
 23
89.9450751341
 33
0.0
  0
LINE
  5
B7
330
B2
100
AcDbEntity
  8
0
  6
Continuous
 62
     7
370
     0
100
AcDbLine
 10
80.4494999274
 20
99.6809470394
 30
0.0
 11
80.4494999274
 21
89.4530751341
 31
0.0
  0
LINE
  5
B8
330
B2
100
AcDbEntity
  8
0
  6
Continuous
 62
     7
370
     0
100
AcDbLine
 10
75.4494999274
 20
96.3290951875
 30
0.0
 11
75.4494999274
 21
89.4530751341
 31
0.0
  0
LINE
  5
B9
330
B2
100
AcDbEntity
  8
0
  6
Continuous
 62
     7
370
     0
100
AcDbLine
 10
80.4494999274
 20
90.4530751341
 30
0.0
 11
86.7994999274
 21
90.4530751341
 31
0.0
  0
LINE
  5
BA
330
B2
100
AcDbEntity
  8
0
  6
Continuous
 62
     7
370
     0
100
AcDbLine
 10
80.4494999274
 20
90.4530751341
 30
0.0
 11
75.4494999274
 21
90.4530751341
 31
0.0
  0
LINE
  5
BB
330
B2
100
AcDbEntity
  8
0
  6
Continuous
 62
     7
370
     0
100
AcDbLine
 10
75.4494999274
 20
90.4530751341
 30
0.0
 11
69.0994999274
 21
90.4530751341
 31
0.0
  0
MTEXT
  5
BC
330
B2
100
AcDbEntity
  8
0
  6
Continuous
 62
     7
370
    18
100
AcDbMText
 10
71.3437661619
 20
94.9648120487
 30
0.0
 40
3.5
 41
0.0
 71
     1
 72
     1
  1
50,00
  7
SLDTEXTSTYLE0
 73
     1
 44
1.0
  0
ENDBLK
  5
B4
330
B2
100
AcDbEntity
  8
0
100
AcDbBlockEnd
  0
BLOCK
  5
BF
330
BE
100
AcDbEntity
  8
0
100
AcDbBlockBegin
  2
_D_3
 70
     0
 10
0.0
 20
0.0
 30
0.0
  3
_D_3
  1

  0
SOLID
  5
C1
330
BE
100
AcDbEntity
  8
0
  6
Continuous
 62
     7
370
    18
100
AcDbTrace
 10
90.4494999274
 20
120.6809470394
 30
0.0
 11
90.9574999274
 21
123.9829470394
 31
0.0
 12
89.9414999274
 22
123.9829470394
 32
0.0
 13
89.9414999274
 23
123.9829470394
 33
0.0
  0
SOLID
  5
C2
330
BE
100
AcDbEntity
  8
0
  6
Continuous
 62
     7
370
    18
100
AcDbTrace
 10
90.4494999274
 20
100.6809470394
 30
0.0
 11
89.9414999274
 21
97.3789470394
 31
0.0
 12
90.9574999274
 22
97.3789470394
 32
0.0
 13
90.9574999274
 23
97.3789470394
 33
0.0
  0
LINE
  5
C3
330
BE
100
AcDbEntity
  8
0
  6
Continuous
 62
     7
370
     0
100
AcDbLine
 10
81.4494999274
 20
120.6809470394
 30
0.0
 11
91.4494999274
 21
120.6809470394
 31
0.0
  0
LINE
  5
C4
330
BE
100
AcDbEntity
  8
0
  6
Continuous
 62
     7
370
     0
100
AcDbLine
 10
81.4494999274
 20
100.6809470394
 30
0.0
 11
91.4494999274
 21
100.6809470394
 31
0.0
  0
LINE
  5
C5
330
BE
100
AcDbEntity
  8
0
  6
Continuous
 62
     7
370
     0
100
AcDbLine
 10
90.4494999274
 20
120.6809470394
 30
0.0
 11
90.4494999274
 21
127.0309470394
 31
0.0
  0
LINE
  5
C6
330
BE
100
AcDbEntity
  8
0
  6
Continuous
 62
     7
370
     0
100
AcDbLine
 10
90.4494999274
 20
120.6809470394
 30
0.0
 11
90.4494999274
 21
100.6809470394
 31
0.0
  0
LINE
  5
C7
330
BE
100
AcDbEntity
  8
0
  6
Continuous
 62
     7
370
     0
100
AcDbLine
 10
90.4494999274
 20
100.6809470394
 30
0.0
 11
90.4494999274
 21
94.3309470394
 31
0.0
  0
MTEXT
  5
C8
330
BE
100
AcDbEntity
  8
0
  6
Continuous
 62
     7
370
    18
100
AcDbMText
 10
85.9377630128
 20
102.0363846636
 30
0.0
 40
3.5
 41
0.0
 71
     1
 72
     1
  1
Ø
  7
SLDTEXTSTYLE0
 11
-7.044195017643634E-15
 21
1.0
 31
0.0
 73
     1
 44
1.0
  0
MTEXT
  5
C9
330
BE
100
AcDbEntity
  8
0
  6
Continuous
 62
     7
370
    18
100
AcDbMText
 10
85.9377630128
 20
106.085690002
 30
0.0
 40
3.5
 41
0.0
 71
     1
 72
     1
  1
200,00
  7
SLDTEXTSTYLE0
 11
-7.044195017643634E-15
 21
1.0
 31
0.0
 73
     1
 44
1.0
  0
ENDBLK
  5
C0
330
BE
100
AcDbEntity
  8
0
100
AcDbBlockEnd
  0
BLOCK
  5
CC
330
CB
100
AcDbEntity
  8
0
100
AcDbBlockBegin
  2
_D_4
 70
     0
 10
0.0
 20
0.0
 30
0.0
  3
_D_4
  1

  0
SOLID
  5
CE
330
CB
100
AcDbEntity
  8
0
  6
Continuous
 62
     7
370
    18
100
AcDbTrace
 10
36.4494999274
 20
125.6809470394
 30
0.0
 11
36.9574999274
 21
128.9829470394
 31
0.0
 12
35.9414999274
 22
128.9829470394
 32
0.0
 13
35.9414999274
 23
128.9829470394
 33
0.0
  0
SOLID
  5
CF
330
CB
100
AcDbEntity
  8
0
  6
Continuous
 62
     7
370
    18
100
AcDbTrace
 10
36.4494999274
 20
95.6809470394
 30
0.0
 11
35.9414999274
 21
92.3789470394
 31
0.0
 12
36.9574999274
 22
92.3789470394
 32
0.0
 13
36.9574999274
 23
92.3789470394
 33
0.0
  0
LINE
  5
D0
330
CB
100
AcDbEntity
  8
0
  6
Continuous
 62
     7
370
     0
100
AcDbLine
 10
45.9494999274
 20
125.6809470394
 30
0.0
 11
35.4494999274
 21
125.6809470394
 31
0.0
  0
LINE
  5
D1
330
CB
100
AcDbEntity
  8
0
  6
Continuous
 62
     7
370
     0
100
AcDbLine
 10
45.9494999274
 20
95.6809470394
 30
0.0
 11
35.4494999274
 21
95.6809470394
 31
0.0
  0
LINE
  5
D2
330
CB
100
AcDbEntity
  8
0
  6
Continuous
 62
     7
370
     0
100
AcDbLine
 10
36.4494999274
 20
125.6809470394
 30
0.0
 11
36.4494999274
 21
132.0309470394
 31
0.0
  0
LINE
  5
D3
330
CB
100
AcDbEntity
  8
0
  6
Continuous
 62
     7
370
     0
100
AcDbLine
 10
36.4494999274
 20
125.6809470394
 30
0.0
 11
36.4494999274
 21
95.6809470394
 31
0.0
  0
LINE
  5
D4
330
CB
100
AcDbEntity
  8
0
  6
Continuous
 62
     7
370
     0
100
AcDbLine
 10
36.4494999274
 20
95.6809470394
 30
0.0
 11
36.4494999274
 21
89.3309470394
 31
0.0
  0
MTEXT
  5
D5
330
CB
100
AcDbEntity
  8
0
  6
Continuous
 62
     7
370
    18
100
AcDbMText
 10
31.9377630128
 20
102.0363846636
 30
0.0
 40
3.5
 41
0.0
 71
     1
 72
     1
  1
Ø
  7
SLDTEXTSTYLE0
 11
-7.044195017643634E-15
 21
1.0
 31
0.0
 73
     1
 44
1.0
  0
MTEXT
  5
D6
330
CB
100
AcDbEntity
  8
0
  6
Continuous
 62
     7
370
    18
100
AcDbMText
 10
31.9377630128
 20
106.085690002
 30
0.0
 40
3.5
 41
0.0
 71
     1
 72
     1
  1
300,00
  7
SLDTEXTSTYLE0
 11
-7.044195017643634E-15
 21
1.0
 31
0.0
 73
     1
 44
1.0
  0
ENDBLK
  5
CD
330
CB
100
AcDbEntity
  8
0
100
AcDbBlockEnd
  0
BLOCK
  5
D9
330
D8
100
AcDbEntity
  8
0
100
AcDbBlockBegin
  2
_D_5
 70
     0
 10
0.0
 20
0.0
 30
0.0
  3
_D_5
  1

  0
SOLID
  5
DB
330
D8
100
AcDbEntity
  8
0
  6
Continuous
 62
     7
370
    18
100
AcDbTrace
 10
49.4494999274
 20
134.0756421184
 30
0.0
 11
46.1474999274
 21
134.5836421184
 31
0.0
 12
46.1474999274
 22
133.5676421184
 32
0.0
 13
46.1474999274
 23
133.5676421184
 33
0.0
  0
SOLID
  5
DC
330
D8
100
AcDbEntity
  8
0
  6
Continuous
 62
     7
370
    18
100
AcDbTrace
 10
75.4494999274
 20
134.0756421184
 30
0.0
 11
78.7514999274
 21
133.5676421184
 31
0.0
 12
78.7514999274
 22
134.5836421184
 32
0.0
 13
78.7514999274
 23
134.5836421184
 33
0.0
  0
LINE
  5
DD
330
D8
100
AcDbEntity
  8
0
  6
Continuous
 62
     7
370
     0
100
AcDbLine
 10
49.4494999274
 20
125.0327988912
 30
0.0
 11
49.4494999274
 21
135.0756421184
 31
0.0
  0
LINE
  5
DE
330
D8
100
AcDbEntity
  8
0
  6
Continuous
 62
     7
370
     0
100
AcDbLine
 10
75.4494999274
 20
125.0327988912
 30
0.0
 11
75.4494999274
 21
135.0756421184
 31
0.0
  0
LINE
  5
DF
330
D8
100
AcDbEntity
  8
0
  6
Continuous
 62
     7
370
     0
100
AcDbLine
 10
49.4494999274
 20
134.0756421184
 30
0.0
 11
43.0994999274
 21
134.0756421184
 31
0.0
  0
LINE
  5
E0
330
D8
100
AcDbEntity
  8
0
  6
Continuous
 62
     7
370
     0
100
AcDbLine
 10
49.4494999274
 20
134.0756421184
 30
0.0
 11
75.4494999274
 21
134.0756421184
 31
0.0
  0
LINE
  5
E1
330
D8
100
AcDbEntity
  8
0
  6
Continuous
 62
     7
370
     0
100
AcDbLine
 10
75.4494999274
 20
134.0756421184
 30
0.0
 11
81.7994999274
 21
134.0756421184
 31
0.0
  0
MTEXT
  5
E2
330
D8
100
AcDbEntity
  8
0
  6
Continuous
 62
     7
370
    18
100
AcDbMText
 10
55.4606643282
 20
138.587379033
 30
0.0
 40
3.5
 41
0.0
 71
     1
 72
     1
  1
260,00
  7
SLDTEXTSTYLE0
 73
     1
 44
1.0
  0
ENDBLK
  5
DA
330
D8
100
AcDbEntity
  8
0
100
AcDbBlockEnd
  0
BLOCK
  5
119
330
118
100
AcDbEntity
  8
0
100
AcDbBlockBegin
  2
_D_6
 70
     0
 10
0.0
 20
0.0
 30
0.0
  3
_D_6
  1

  0
SOLID
  5
11B
330
118
100
AcDbEntity
  8
0
  6
Continuous
 62
     7
370
    18
100
AcDbTrace
 10
151.085650822
 20
192.7102222678
 30
0.0
 11
147.783650822
 21
193.2182222678
 31
0.0
 12
147.783650822
 22
192.2022222678
 32
0.0
 13
147.783650822
 23
192.2022222678
 33
0.0
  0
SOLID
  5
11C
330
118
100
AcDbEntity
  8
0
  6
Continuous
 62
     7
370
    18
100
AcDbTrace
 10
171.085650822
 20
192.7102222678
 30
0.0
 11
174.387650822
 21
192.2022222678
 31
0.0
 12
174.387650822
 22
193.2182222678
 32
0.0
 13
174.387650822
 23
193.2182222678
 33
0.0
  0
LINE
  5
11D
330
118
100
AcDbEntity
  8
0
  6
Continuous
 62
     7
370
     0
100
AcDbLine
 10
151.085650822
 20
188.4357106
 30
0.0
 11
151.085650822
 21
193.7102222678
 31
0.0
  0
LINE
  5
11E
330
118
100
AcDbEntity
  8
0
  6
Continuous
 62
     7
370
     0
100
AcDbLine
 10
171.085650822
 20
188.4357106
 30
0.0
 11
171.085650822
 21
193.7102222678
 31
0.0
  0
LINE
  5
11F
330
118
100
AcDbEntity
  8
0
  6
Continuous
 62
     7
370
     0
100
AcDbLine
 10
151.085650822
 20
192.7102222678
 30
0.0
 11
144.735650822
 21
192.7102222678
 31
0.0
  0
LINE
  5
120
330
118
100
AcDbEntity
  8
0
  6
Continuous
 62
     7
370
     0
100
AcDbLine
 10
151.085650822
 20
192.7102222678
 30
0.0
 11
171.085650822
 21
192.7102222678
 31
0.0
  0
LINE
  5
121
330
118
100
AcDbEntity
  8
0
  6
Continuous
 62
     7
370
     0
100
AcDbLine
 10
171.085650822
 20
192.7102222678
 30
0.0
 11
177.435650822
 21
192.7102222678
 31
0.0
  0
MTEXT
  5
122
330
118
100
AcDbEntity
  8
0
  6
Continuous
 62
     7
370
    18
100
AcDbMText
 10
151.1209554135
 20
197.2219591824
 30
0.0
 40
3.5
 41
0.0
 71
     1
 72
     1
  1
Ø
  7
SLDTEXTSTYLE0
 73
     1
 44
1.0
  0
MTEXT
  5
123
330
118
100
AcDbEntity
  8
0
  6
Continuous
 62
     7
370
    18
100
AcDbMText
 10
155.1702607519
 20
197.2219591824
 30
0.0
 40
3.5
 41
0.0
 71
     1
 72
     1
  1
200,00
  7
SLDTEXTSTYLE0
 73
     1
 44
1.0
  0
ENDBLK
  5
11A
330
118
100
AcDbEntity
  8
0
100
AcDbBlockEnd
  0
BLOCK
  5
126
330
125
100
AcDbEntity
  8
0
100
AcDbBlockBegin
  2
_D_7
 70
     0
 10
0.0
 20
0.0
 30
0.0
  3
_D_7
  1

  0
SOLID
  5
128
330
125
100
AcDbEntity
  8
0
  6
Continuous
 62
     7
370
    18
100
AcDbTrace
 10
147.085650822
 20
198.8177401023
 30
0.0
 11
143.783650822
 21
199.3257401023
 31
0.0
 12
143.783650822
 22
198.3097401023
 32
0.0
 13
143.783650822
 23
198.3097401023
 33
0.0
  0
SOLID
  5
129
330
125
100
AcDbEntity
  8
0
  6
Continuous
 62
     7
370
    18
100
AcDbTrace
 10
175.085650822
 20
198.8177401023
 30
0.0
 11
178.387650822
 21
198.3097401023
 31
0.0
 12
178.387650822
 22
199.3257401023
 32
0.0
 13
178.387650822
 23
199.3257401023
 33
0.0
  0
LINE
  5
12A
330
125
100
AcDbEntity
  8
0
  6
Continuous
 62
     7
370
     0
100
AcDbLine
 10
147.085650822
 20
185.4357106
 30
0.0
 11
147.085650822
 21
199.8177401023
 31
0.0
  0
LINE
  5
12B
330
125
100
AcDbEntity
  8
0
  6
Continuous
 62
     7
370
     0
100
AcDbLine
 10
175.085650822
 20
185.4357106
 30
0.0
 11
175.085650822
 21
199.8177401023
 31
0.0
  0
LINE
  5
12C
330
125
100
AcDbEntity
  8
0
  6
Continuous
 62
     7
370
     0
100
AcDbLine
 10
147.085650822
 20
198.8177401023
 30
0.0
 11
140.735650822
 21
198.8177401023
 31
0.0
  0
LINE
  5
12D
330
125
100
AcDbEntity
  8
0
  6
Continuous
 62
     7
370
     0
100
AcDbLine
 10
147.085650822
 20
198.8177401023
 30
0.0
 11
175.085650822
 21
198.8177401023
 31
0.0
  0
LINE
  5
12E
330
125
100
AcDbEntity
  8
0
  6
Continuous
 62
     7
370
     0
100
AcDbLine
 10
175.085650822
 20
198.8177401023
 30
0.0
 11
181.435650822
 21
198.8177401023
 31
0.0
  0
MTEXT
  5
12F
330
125
100
AcDbEntity
  8
0
  6
Continuous
 62
     7
370
    18
100
AcDbMText
 10
151.1209554135
 20
203.3294770169
 30
0.0
 40
3.5
 41
0.0
 71
     1
 72
     1
  1
Ø
  7
SLDTEXTSTYLE0
 73
     1
 44
1.0
  0
MTEXT
  5
130
330
125
100
AcDbEntity
  8
0
  6
Continuous
 62
     7
370
    18
100
AcDbMText
 10
155.1702607519
 20
203.3294770169
 30
0.0
 40
3.5
 41
0.0
 71
     1
 72
     1
  1
280,00
  7
SLDTEXTSTYLE0
 73
     1
 44
1.0
  0
ENDBLK
  5
127
330
125
100
AcDbEntity
  8
0
100
AcDbBlockEnd
  0
BLOCK
  5
164
330
163
100
AcDbEntity
  8
0
100
AcDbBlockBegin
  2
_D_8
 70
     0
 10
0.0
 20
0.0
 30
0.0
  3
_D_8
  1

  0
SOLID
  5
166
330
163
100
AcDbEntity
  8
0
  6
Continuous
 62
     7
370
    18
100
AcDbTrace
 10
186.776831391
 20
114.9292642062
 30
0.0
 11
186.268831391
 21
111.6272642062
 31
0.0
 12
187.284831391
 22
111.6272642062
 32
0.0
 13
187.284831391
 23
111.6272642062
 33
0.0
  0
SOLID
  5
167
330
163
100
AcDbEntity
  8
0
  6
Continuous
 62
     7
370
    18
100
AcDbTrace
 10
186.776831391
 20
116.4992642062
 30
0.0
 11
187.284831391
 21
119.8012642062
 31
0.0
 12
186.268831391
 22
119.8012642062
 32
0.0
 13
186.268831391
 23
119.8012642062
 33
0.0
  0
LINE
  5
168
330
163
100
AcDbEntity
  8
0
  6
Continuous
 62
     7
370
     0
100
AcDbLine
 10
162.3053067827
 20
114.9292642062
 30
0.0
 11
187.776831391
 21
114.9292642062
 31
0.0
  0
LINE
  5
169
330
163
100
AcDbEntity
  8
0
  6
Continuous
 62
     7
370
     0
100
AcDbLine
 10
162.3053067827
 20
116.4992642062
 30
0.0
 11
187.776831391
 21
116.4992642062
 31
0.0
  0
LINE
  5
16A
330
163
100
AcDbEntity
  8
0
  6
Continuous
 62
     7
370
     0
100
AcDbLine
 10
186.776831391
 20
114.9292642062
 30
0.0
 11
186.776831391
 21
108.5792642062
 31
0.0
  0
LINE
  5
16B
330
163
100
AcDbEntity
  8
0
  6
Continuous
 62
     7
370
     0
100
AcDbLine
 10
186.776831391
 20
114.9292642062
 30
0.0
 11
186.776831391
 21
116.4992642062
 31
0.0
  0
LINE
  5
16C
330
163
100
AcDbEntity
  8
0
  6
Continuous
 62
     7
370
     0
100
AcDbLine
 10
186.776831391
 20
116.4992642062
 30
0.0
 11
186.776831391
 21
122.8492642062
 31
0.0
  0
MTEXT
  5
16D
330
163
100
AcDbEntity
  8
0
  6
Continuous
 62
     7
370
    18
100
AcDbMText
 10
182.2650944764
 20
109.3639965161
 30
0.0
 40
3.5
 41
0.0
 71
     1
 72
     1
  1
15,70
  7
SLDTEXTSTYLE0
 11
6.123233995736766E-17
 21
1.0
 31
0.0
 73
     1
 44
1.0
  0
ENDBLK
  5
165
330
163
100
AcDbEntity
  8
0
100
AcDbBlockEnd
  0
BLOCK
  5
170
330
16F
100
AcDbEntity
  8
0
100
AcDbBlockBegin
  2
_D_9
 70
     0
 10
0.0
 20
0.0
 30
0.0
  3
_D_9
  1

  0
SOLID
  5
172
330
16F
100
AcDbEntity
  8
0
  6
Continuous
 62
     7
370
    18
100
AcDbTrace
 10
161.3053067827
 20
131.907341417
 30
0.0
 11
164.6073067827
 21
131.399341417
 31
0.0
 12
164.6073067827
 22
132.415341417
 32
0.0
 13
164.6073067827
 23
132.415341417
 33
0.0
  0
SOLID
  5
173
330
16F
100
AcDbEntity
  8
0
  6
Continuous
 62
     7
370
    18
100
AcDbTrace
 10
158.3053067827
 20
131.907341417
 30
0.0
 11
155.0033067827
 21
132.415341417
 31
0.0
 12
155.0033067827
 22
131.399341417
 32
0.0
 13
155.0033067827
 23
131.399341417
 33
0.0
  0
LINE
  5
174
330
16F
100
AcDbEntity
  8
0
  6
Continuous
 62
     7
370
     0
100
AcDbLine
 10
161.3053067827
 20
117.4992642062
 30
0.0
 11
161.3053067827
 21
132.907341417
 31
0.0
  0
LINE
  5
175
330
16F
100
AcDbEntity
  8
0
  6
Continuous
 62
     7
370
     0
100
AcDbLine
 10
158.3053067827
 20
117.4992642062
 30
0.0
 11
158.3053067827
 21
132.907341417
 31
0.0
  0
LINE
  5
176
330
16F
100
AcDbEntity
  8
0
  6
Continuous
 62
     7
370
     0
100
AcDbLine
 10
161.3053067827
 20
131.907341417
 30
0.0
 11
167.6553067827
 21
131.907341417
 31
0.0
  0
LINE
  5
177
330
16F
100
AcDbEntity
  8
0
  6
Continuous
 62
     7
370
     0
100
AcDbLine
 10
161.3053067827
 20
131.907341417
 30
0.0
 11
158.3053067827
 21
131.907341417
 31
0.0
  0
LINE
  5
178
330
16F
100
AcDbEntity
  8
0
  6
Continuous
 62
     7
370
     0
100
AcDbLine
 10
158.3053067827
 20
131.907341417
 30
0.0
 11
151.9553067827
 21
131.907341417
 31
0.0
  0
MTEXT
  5
179
330
16F
100
AcDbEntity
  8
0
  6
Continuous
 62
     7
370
    18
100
AcDbMText
 10
153.5586176516
 20
136.4190783316
 30
0.0
 40
3.5
 41
0.0
 71
     1
 72
     1
  1
30,00
  7
SLDTEXTSTYLE0
 73
     1
 44
1.0
  0
ENDBLK
  5
171
330
16F
100
AcDbEntity
  8
0
100
AcDbBlockEnd
  0
BLOCK
  5
17D
330
17C
100
AcDbEntity
  8
0
100
AcDbBlockBegin
  2
_D_10
 70
     0
 10
0.0
 20
0.0
 30
0.0
  3
_D_10
  1

  0
SOLID
  5
17F
330
17C
100
AcDbEntity
  8
0
  6
Continuous
 62
     7
370
    18
100
AcDbTrace
 10
155.3053067827
 20
110.6866235191
 30
0.0
 11
152.0033067827
 21
111.1946235191
 31
0.0
 12
152.0033067827
 22
110.1786235191
 32
0.0
 13
152.0033067827
 23
110.1786235191
 33
0.0
  0
LINE
  5
180
330
17C
100
AcDbEntity
  8
0
  6
Continuous
 62
     7
370
     0
100
AcDbLine
 10
155.3053067827
 20
110.6866235191
 30
0.0
 11
126.2359345598
 21
110.6866235191
 31
0.0
  0
LINE
  5
181
330
17C
100
AcDbEntity
  8
0
  6
Continuous
 62
     7
370
     0
100
AcDbLine
 10
155.3053067827
 20
110.6866235191
 30
0.0
 11
159.8053067827
 21
110.6866235191
 31
0.0
  0
MTEXT
  5
182
330
17C
100
AcDbEntity
  8
0
  6
Continuous
 62
     7
370
    18
100
AcDbMText
 10
126.2359345598
 20
115.1831940482
 30
0.0
 40
3.5
 41
0.0
 71
     1
 72
     1
  1
R45,00
  7
SLDTEXTSTYLE0
 73
     1
 44
1.0
  0
ENDBLK
  5
17E
330
17C
100
AcDbEntity
  8
0
100
AcDbBlockEnd
  0
BLOCK
  5
185
330
184
100
AcDbEntity
  8
0
100
AcDbBlockBegin
  2
_D_11
 70
     0
 10
0.0
 20
0.0
 30
0.0
  3
_D_11
  1

  0
SOLID
  5
187
330
184
100
AcDbEntity
  8
0
  6
Continuous
 62
     7
370
    18
100
AcDbTrace
 10
165.0014592055
 20
107.6866235191
 30
0.0
 11
167.6070750887
 21
105.5956826139
 31
0.0
 12
168.1150750887
 22
106.4755644242
 32
0.0
 13
168.1150750887
 23
106.4755644242
 33
0.0
  0
LINE
  5
188
330
184
100
AcDbEntity
  8
0
  6
Continuous
 62
     7
370
     0
100
AcDbLine
 10
165.0014592055
 20
107.6866235191
 30
0.0
 11
193.8823311137
 21
91.0122443484
 31
0.0
  0
LINE
  5
189
330
184
100
AcDbEntity
  8
0
  6
Continuous
 62
     7
370
     0
100
AcDbLine
 10
165.0014592055
 20
107.6866235191
 30
0.0
 11
159.8053067827
 21
110.6866235191
 31
0.0
  0
MTEXT
  5
18A
330
184
100
AcDbEntity
  8
0
  6
Continuous
 62
     7
370
    18
100
AcDbMText
 10
183.6003567127
 20
102.146400387
 30
0.0
 40
3.5
 41
0.0
 71
     1
 72
     1
  1
R60,00
  7
SLDTEXTSTYLE0
 11
0.866025403784445
 21
-0.4999999999999889
 31
0.0
 73
     1
 44
1.0
  0
ENDBLK
  5
186
330
184
100
AcDbEntity
  8
0
100
AcDbBlockEnd
  0
BLOCK
  5
18C
330
18B
100
AcDbEntity
  8
0
100
AcDbBlockBegin
  2
SW_CENTERMARKSYMBOL_0
 70
     0
 10
0.0
 20
0.0
 30
0.0
  3
SW_CENTERMARKSYMBOL_0
  1

  0
LINE
  5
18E
330
18B
100
AcDbEntity
  8
0
  6
Continuous
 62
     0
370
    18
100
AcDbLine
 10
0.0
 20
0.0
 30
0.0
 11
0.0
 21
0.25
 31
0.0
  0
LINE
  5
18F
330
18B
100
AcDbEntity
  8
0
  6
Continuous
 62
     0
370
    18
100
AcDbLine
 10
0.0
 20
0.0
 30
0.0
 11
-0.25
 21
0.0
 31
0.0
  0
LINE
  5
190
330
18B
100
AcDbEntity
  8
0
  6
Continuous
 62
     0
370
    18
100
AcDbLine
 10
0.0
 20
0.0
 30
0.0
 11
0.0
 21
-0.25
 31
0.0
  0
LINE
  5
191
330
18B
100
AcDbEntity
  8
0
  6
Continuous
 62
     0
370
    18
100
AcDbLine
 10
0.0
 20
0.0
 30
0.0
 11
0.25
 21
0.0
 31
0.0
  0
LINE
  5
192
330
18B
100
AcDbEntity
  8
0
  6
Continuous
 62
     0
370
    18
100
AcDbLine
 10
0.0
 20
0.5
 30
0.0
 11
0.0
 21
10.25
 31
0.0
  0
LINE
  5
193
330
18B
100
AcDbEntity
  8
0
  6
Continuous
 62
     0
370
    18
100
AcDbLine
 10
-0.5
 20
0.0
 30
0.0
 11
-10.25
 21
0.0
 31
0.0
  0
LINE
  5
194
330
18B
100
AcDbEntity
  8
0
  6
Continuous
 62
     0
370
    18
100
AcDbLine
 10
0.0
 20
-0.5
 30
0.0
 11
0.0
 21
-10.25
 31
0.0
  0
LINE
  5
195
330
18B
100
AcDbEntity
  8
0
  6
Continuous
 62
     0
370
    18
100
AcDbLine
 10
0.5
 20
0.0
 30
0.0
 11
10.25
 21
0.0
 31
0.0
  0
ENDBLK
  5
18D
330
18B
100
AcDbEntity
  8
0
100
AcDbBlockEnd
  0
ENDSEC
  0
SECTION
  2
ENTITIES
  0
MTEXT
  5
64
330
1F
100
AcDbEntity
  8
0
  6
Continuous
 62
     7
370
     0
100
AcDbMText
 10
144.6498741242
 20
32.1863881539
 30
0.0
 40
3.5
 41
0.0
 71
     1
 72
     1
  1
Engranage de 18 dientes y diámetro mayor de 27cm
  7
SLDTEXTSTYLE0
 73
     1
 44
1.0
  0
LINE
  5
65
330
1F
100
AcDbEntity
  8
0
  6
Continuous
 62
     7
370
    25
100
AcDbLine
 10
48.4494999274
 20
125.6809470394
 30
0.0
 11
46.9494999274
 21
125.6809470394
 31
0.0
  0
LINE
  5
66
330
1F
100
AcDbEntity
  8
0
  6
Continuous
 62
     7
370
    25
100
AcDbLine
 10
46.9494999274
 20
95.6809470394
 30
0.0
 11
48.4494999274
 21
95.6809470394
 31
0.0
  0
LINE
  5
67
330
1F
100
AcDbEntity
  8
0
  6
Continuous
 62
     7
370
    25
100
AcDbLine
 10
48.4494999274
 20
95.6809470394
 30
0.0
 11
49.4494999274
 21
96.6809470394
 31
0.0
  0
LINE
  5
68
330
1F
100
AcDbEntity
  8
0
  6
Continuous
 62
     7
370
    25
100
AcDbLine
 10
49.4494999274
 20
124.6809470394
 30
0.0
 11
48.4494999274
 21
125.6809470394
 31
0.0
  0
LINE
  5
69
330
1F
100
AcDbEntity
  8
0
  6
Continuous
 62
     7
370
    25
100
AcDbLine
 10
46.9494999274
 20
120.6809470394
 30
0.0
 11
46.4494999274
 21
120.6809470394
 31
0.0
  0
LINE
  5
6A
330
1F
100
AcDbEntity
  8
0
  6
Continuous
 62
     7
370
    25
100
AcDbLine
 10
46.4494999274
 20
100.6809470394
 30
0.0
 11
46.9494999274
 21
100.6809470394
 31
0.0
  0
LINE
  5
6B
330
1F
100
AcDbEntity
  8
0
  6
Continuous
 62
     7
370
    25
100
AcDbLine
 10
75.4494999274
 20
100.6809470394
 30
0.0
 11
80.4494999274
 21
100.6809470394
 31
0.0
  0
LINE
  5
6C
330
1F
100
AcDbEntity
  8
0
  6
Continuous
 62
     7
370
    25
100
AcDbLine
 10
80.4494999274
 20
120.6809470394
 30
0.0
 11
75.4494999274
 21
120.6809470394
 31
0.0
  0
LINE
  5
6D
330
1F
100
AcDbEntity
  8
0
  6
Continuous
 62
     7
370
    25
100
AcDbLine
 10
48.4494999274
 20
110.6809470394
 30
0.0
 11
48.4494999274
 21
125.6809470394
 31
0.0
  0
LINE
  5
6E
330
1F
100
AcDbEntity
  8
0
  6
Continuous
 62
     7
370
    25
100
AcDbLine
 10
48.4494999274
 20
95.6809470394
 30
0.0
 11
48.4494999274
 21
110.6809470394
 31
0.0
  0
LINE
  5
6F
330
1F
100
AcDbEntity
  8
0
  6
Continuous
 62
     7
370
    25
100
AcDbLine
 10
46.9494999274
 20
110.6809470394
 30
0.0
 11
46.9494999274
 21
125.6809470394
 31
0.0
  0
LINE
  5
70
330
1F
100
AcDbEntity
  8
0
  6
Continuous
 62
     7
370
    25
100
AcDbLine
 10
46.9494999274
 20
95.6809470394
 30
0.0
 11
46.9494999274
 21
110.6809470394
 31
0.0
  0
LINE
  5
71
330
1F
100
AcDbEntity
  8
0
  6
Continuous
 62
     7
370
    25
100
AcDbLine
 10
49.4494999274
 20
110.6809470394
 30
0.0
 11
49.4494999274
 21
96.6809470394
 31
0.0
  0
LINE
  5
72
330
1F
100
AcDbEntity
  8
0
  6
Continuous
 62
     7
370
    25
100
AcDbLine
 10
49.4494999274
 20
124.6809470394
 30
0.0
 11
49.4494999274
 21
110.6809470394
 31
0.0
  0
LINE
  5
73
330
1F
100
AcDbEntity
  8
0
  6
Continuous
 62
     7
370
    25
100
AcDbLine
 10
49.4494999274
 20
111.0352673177
 30
0.0
 11
75.4494999274
 21
111.0352673177
 31
0.0
  0
LINE
  5
74
330
1F
100
AcDbEntity
  8
0
  6
Continuous
 62
     7
370
    25
100
AcDbLine
 10
75.4494999274
 20
111.0352673177
 30
0.0
 11
75.4494999274
 21
110.326626761
 31
0.0
  0
LINE
  5
75
330
1F
100
AcDbEntity
  8
0
  6
Continuous
 62
     7
370
    25
100
AcDbLine
 10
49.4494999274
 20
110.326626761
 30
0.0
 11
75.4494999274
 21
110.326626761
 31
0.0
  0
LINE
  5
76
330
1F
100
AcDbEntity
  8
0
  6
Continuous
 62
     7
370
    25
100
AcDbLine
 10
49.4494999274
 20
106.3982178326
 30
0.0
 11
75.4494999274
 21
106.3982178326
 31
0.0
  0
LINE
  5
77
330
1F
100
AcDbEntity
  8
0
  6
Continuous
 62
     7
370
    25
100
AcDbLine
 10
75.4494999274
 20
106.3982178326
 30
0.0
 11
75.4494999274
 21
110.326626761
 31
0.0
  0
LINE
  5
78
330
1F
100
AcDbEntity
  8
0
  6
Continuous
 62
     7
370
    25
100
AcDbLine
 10
49.4494999274
 20
114.9636762461
 30
0.0
 11
75.4494999274
 21
114.9636762461
 31
0.0
  0
LINE
  5
79
330
1F
100
AcDbEntity
  8
0
  6
Continuous
 62
     7
370
    25
100
AcDbLine
 10
75.4494999274
 20
111.0352673177
 30
0.0
 11
75.4494999274
 21
114.9636762461
 31
0.0
  0
LINE
  5
7A
330
1F
100
AcDbEntity
  8
0
  6
Continuous
 62
     7
370
    25
100
AcDbLine
 10
49.4494999274
 20
105.7323135307
 30
0.0
 11
75.4494999274
 21
105.7323135307
 31
0.0
  0
LINE
  5
7B
330
1F
100
AcDbEntity
  8
0
  6
Continuous
 62
     7
370
    25
100
AcDbLine
 10
75.4494999274
 20
106.3982178326
 30
0.0
 11
75.4494999274
 21
105.7323135307
 31
0.0
  0
LINE
  5
7C
330
1F
100
AcDbEntity
  8
0
  6
Continuous
 62
     7
370
    25
100
AcDbLine
 10
49.4494999274
 20
115.629580548
 30
0.0
 11
75.4494999274
 21
115.629580548
 31
0.0
  0
LINE
  5
7D
330
1F
100
AcDbEntity
  8
0
  6
Continuous
 62
     7
370
    25
100
AcDbLine
 10
75.4494999274
 20
115.629580548
 30
0.0
 11
75.4494999274
 21
114.9636762461
 31
0.0
  0
LINE
  5
7E
330
1F
100
AcDbEntity
  8
0
  6
Continuous
 62
     7
370
    25
100
AcDbLine
 10
49.4494999274
 20
102.2777286962
 30
0.0
 11
75.4494999274
 21
102.2777286962
 31
0.0
  0
LINE
  5
7F
330
1F
100
AcDbEntity
  8
0
  6
Continuous
 62
     7
370
    25
100
AcDbLine
 10
75.4494999274
 20
102.2777286962
 30
0.0
 11
75.4494999274
 21
105.7323135307
 31
0.0
  0
LINE
  5
80
330
1F
100
AcDbEntity
  8
0
  6
Continuous
 62
     7
370
    25
100
AcDbLine
 10
49.4494999274
 20
119.0841653825
 30
0.0
 11
75.4494999274
 21
119.0841653825
 31
0.0
  0
LINE
  5
81
330
1F
100
AcDbEntity
  8
0
  6
Continuous
 62
     7
370
    25
100
AcDbLine
 10
75.4494999274
 20
115.629580548
 30
0.0
 11
75.4494999274
 21
119.0841653825
 31
0.0
  0
LINE
  5
82
330
1F
100
AcDbEntity
  8
0
  6
Continuous
 62
     7
370
    25
100
AcDbLine
 10
49.4494999274
 20
101.7348785355
 30
0.0
 11
75.4494999274
 21
101.7348785355
 31
0.0
  0
LINE
  5
83
330
1F
100
AcDbEntity
  8
0
  6
Continuous
 62
     7
370
    25
100
AcDbLine
 10
75.4494999274
 20
102.2777286962
 30
0.0
 11
75.4494999274
 21
101.7348785355
 31
0.0
  0
LINE
  5
84
330
1F
100
AcDbEntity
  8
0
  6
Continuous
 62
     7
370
    25
100
AcDbLine
 10
49.4494999274
 20
119.6270155432
 30
0.0
 11
75.4494999274
 21
119.6270155432
 31
0.0
  0
LINE
  5
85
330
1F
100
AcDbEntity
  8
0
  6
Continuous
 62
     7
370
    25
100
AcDbLine
 10
75.4494999274
 20
119.6270155432
 30
0.0
 11
75.4494999274
 21
119.0841653825
 31
0.0
  0
LINE
  5
86
330
1F
100
AcDbEntity
  8
0
  6
Continuous
 62
     7
370
    25
100
AcDbLine
 10
49.4494999274
 20
99.1707917102
 30
0.0
 11
75.4494999274
 21
99.1707917102
 31
0.0
  0
LINE
  5
87
330
1F
100
AcDbEntity
  8
0
  6
Continuous
 62
     7
370
    25
100
AcDbLine
 10
75.4494999274
 20
99.1707917102
 30
0.0
 11
75.4494999274
 21
101.7348785355
 31
0.0
  0
LINE
  5
88
330
1F
100
AcDbEntity
  8
0
  6
Continuous
 62
     7
370
    25
100
AcDbLine
 10
49.4494999274
 20
122.1911023685
 30
0.0
 11
75.4494999274
 21
122.1911023685
 31
0.0
  0
LINE
  5
89
330
1F
100
AcDbEntity
  8
0
  6
Continuous
 62
     7
370
    25
100
AcDbLine
 10
75.4494999274
 20
119.6270155432
 30
0.0
 11
75.4494999274
 21
122.1911023685
 31
0.0
  0
LINE
  5
8A
330
1F
100
AcDbEntity
  8
0
  6
Continuous
 62
     7
370
    25
100
AcDbLine
 10
46.4494999274
 20
110.6809470394
 30
0.0
 11
46.4494999274
 21
120.6809470394
 31
0.0
  0
LINE
  5
8B
330
1F
100
AcDbEntity
  8
0
  6
Continuous
 62
     7
370
    25
100
AcDbLine
 10
46.4494999274
 20
100.6809470394
 30
0.0
 11
46.4494999274
 21
110.6809470394
 31
0.0
  0
LINE
  5
8C
330
1F
100
AcDbEntity
  8
0
  6
Continuous
 62
     7
370
    25
100
AcDbLine
 10
80.4494999274
 20
120.6809470394
 30
0.0
 11
80.4494999274
 21
100.6809470394
 31
0.0
  0
LINE
  5
8D
330
1F
100
AcDbEntity
  8
0
  6
Continuous
 62
     7
370
    25
100
AcDbLine
 10
49.4494999274
 20
98.8164714319
 30
0.0
 11
75.4494999274
 21
98.8164714319
 31
0.0
  0
LINE
  5
8E
330
1F
100
AcDbEntity
  8
0
  6
Continuous
 62
     7
370
    25
100
AcDbLine
 10
75.4494999274
 20
99.1707917102
 30
0.0
 11
75.4494999274
 21
98.8164714319
 31
0.0
  0
LINE
  5
8F
330
1F
100
AcDbEntity
  8
0
  6
Continuous
 62
     7
370
    25
100
AcDbLine
 10
49.4494999274
 20
122.5454226468
 30
0.0
 11
75.4494999274
 21
122.5454226468
 31
0.0
  0
LINE
  5
90
330
1F
100
AcDbEntity
  8
0
  6
Continuous
 62
     7
370
    25
100
AcDbLine
 10
75.4494999274
 20
122.5454226468
 30
0.0
 11
75.4494999274
 21
122.1911023685
 31
0.0
  0
LINE
  5
91
330
1F
100
AcDbEntity
  8
0
  6
Continuous
 62
     7
370
    25
100
AcDbLine
 10
49.4494999274
 20
97.4521493288
 30
0.0
 11
75.4494999274
 21
97.4521493288
 31
0.0
  0
LINE
  5
92
330
1F
100
AcDbEntity
  8
0
  6
Continuous
 62
     7
370
    25
100
AcDbLine
 10
75.4494999274
 20
97.4521493288
 30
0.0
 11
75.4494999274
 21
98.8164714319
 31
0.0
  0
LINE
  5
93
330
1F
100
AcDbEntity
  8
0
  6
Continuous
 62
     7
370
    25
100
AcDbLine
 10
49.4494999274
 20
123.9097447499
 30
0.0
 11
75.4494999274
 21
123.9097447499
 31
0.0
  0
LINE
  5
94
330
1F
100
AcDbEntity
  8
0
  6
Continuous
 62
     7
370
    25
100
AcDbLine
 10
75.4494999274
 20
122.5454226468
 30
0.0
 11
75.4494999274
 21
123.9097447499
 31
0.0
  0
LINE
  5
95
330
1F
100
AcDbEntity
  8
0
  6
Continuous
 62
     7
370
    25
100
AcDbLine
 10
49.4494999274
 20
97.3290951875
 30
0.0
 11
75.4494999274
 21
97.3290951875
 31
0.0
  0
LINE
  5
96
330
1F
100
AcDbEntity
  8
0
  6
Continuous
 62
     7
370
    25
100
AcDbLine
 10
75.4494999274
 20
97.4521493288
 30
0.0
 11
75.4494999274
 21
97.3290951875
 31
0.0
  0
LINE
  5
97
330
1F
100
AcDbEntity
  8
0
  6
Continuous
 62
     7
370
    25
100
AcDbLine
 10
49.4494999274
 20
124.0327988912
 30
0.0
 11
75.4494999274
 21
124.0327988912
 31
0.0
  0
LINE
  5
98
330
1F
100
AcDbEntity
  8
0
  6
Continuous
 62
     7
370
    25
100
AcDbLine
 10
75.4494999274
 20
124.0327988912
 30
0.0
 11
75.4494999274
 21
123.9097447499
 31
0.0
  0
DIMENSION
  5
99
330
1F
100
AcDbEntity
  8
0
  6
Continuous
 62
     7
370
    18
100
AcDbDimension
  2
_D
 10
80.4494999274
 20
80.9808962976
 30
0.0
 11
61.5919549191
 21
80.9808962976
 31
0.0
 70
   160
  1
<>
 71
     2
 42
-1.0
  3
SLDDIMSTYLE0
100
AcDbAlignedDimension
 13
46.4494999274
 23
100.6809470394
 33
0.0
 14
80.4494999274
 24
100.6809470394
 34
0.0
100
AcDbRotatedDimension
  0
DIMENSION
  5
A4
330
1F
100
AcDbEntity
  8
0
  6
Continuous
 62
     7
370
    18
100
AcDbDimension
  2
_D_1
 10
49.4494999274
 20
90.9996035276
 30
0.0
 11
49.0261187323
 21
90.9996035276
 31
0.0
 70
   160
  1
<>
 71
     2
 42
-1.0
  3
SLDDIMSTYLE1
100
AcDbAlignedDimension
 13
46.9494999274
 23
95.6809470394
 33
0.0
 14
49.4494999274
 24
95.6809470394
 34
0.0
100
AcDbRotatedDimension
  0
DIMENSION
  5
B1
330
1F
100
AcDbEntity
  8
0
  6
Continuous
 62
     7
370
    18
100
AcDbDimension
  2
_D_2
 10
75.4494999274
 20
90.4530751341
 30
0.0
 11
77.1625164055
 21
90.4530751341
 31
0.0
 70
   160
  1
<>
 71
     2
 42
-1.0
  3
SLDDIMSTYLE1
100
AcDbAlignedDimension
 13
80.4494999274
 23
100.6809470394
 33
0.0
 14
75.4494999274
 24
97.3290951875
 34
0.0
100
AcDbRotatedDimension
  0
DIMENSION
  5
BD
330
1F
100
AcDbEntity
  8
0
  6
Continuous
 62
     7
370
    18
100
AcDbDimension
  2
_D_3
 10
90.4494999274
 20
100.6809470394
 30
0.0
 11
90.4494999274
 21
111.1728435224
 31
0.0
 70
   160
  1
Ø<>
 71
     2
 42
-1.0
  3
SLDDIMSTYLE1
100
AcDbAlignedDimension
 13
80.4494999274
 23
120.6809470394
 33
0.0
 14
80.4494999274
 24
100.6809470394
 34
0.0
 50
90.0
100
AcDbRotatedDimension
  0
DIMENSION
  5
CA
330
1F
100
AcDbEntity
  8
0
  6
Continuous
 62
     7
370
    18
100
AcDbDimension
  2
_D_4
 10
36.4494999274
 20
95.6809470394
 30
0.0
 11
36.4494999274
 21
111.1728435224
 31
0.0
 70
   160
  1
Ø<>
 71
     2
 42
-1.0
  3
SLDDIMSTYLE1
100
AcDbAlignedDimension
 13
46.9494999274
 23
125.6809470394
 33
0.0
 14
46.9494999274
 24
95.6809470394
 34
0.0
 50
90.0
100
AcDbRotatedDimension
  0
DIMENSION
  5
D7
330
1F
100
AcDbEntity
  8
0
  6
Continuous
 62
     7
370
    18
100
AcDbDimension
  2
_D_5
 10
75.4494999274
 20
134.0756421184
 30
0.0
 11
62.572470285
 21
134.0756421184
 31
0.0
 70
   160
  1
<>
 71
     2
 42
-1.0
  3
SLDDIMSTYLE1
100
AcDbAlignedDimension
 13
49.4494999274
 23
124.0327988912
 33
0.0
 14
75.4494999274
 24
124.0327988912
 34
0.0
100
AcDbRotatedDimension
  0
LINE
  5
E3
330
1F
100
AcDbEntity
  8
0
  6
Continuous
 62
     7
370
    25
100
AcDbLine
 10
176.085650822
 20
185.4357106
 30
0.0
 11
176.085650822
 21
186.9357106
 31
0.0
  0
LINE
  5
E4
330
1F
100
AcDbEntity
  8
0
  6
Continuous
 62
     7
370
    25
100
AcDbLine
 10
146.085650822
 20
186.9357106
 30
0.0
 11
146.085650822
 21
185.4357106
 31
0.0
  0
LINE
  5
E5
330
1F
100
AcDbEntity
  8
0
  6
Continuous
 62
     7
370
    25
100
AcDbLine
 10
146.085650822
 20
185.4357106
 30
0.0
 11
147.085650822
 21
184.4357106
 31
0.0
  0
LINE
  5
E6
330
1F
100
AcDbEntity
  8
0
  6
Continuous
 62
     7
370
    25
100
AcDbLine
 10
175.085650822
 20
184.4357106
 30
0.0
 11
176.085650822
 21
185.4357106
 31
0.0
  0
LINE
  5
E7
330
1F
100
AcDbEntity
  8
0
  6
Continuous
 62
     7
370
    25
100
AcDbLine
 10
171.085650822
 20
186.9357106
 30
0.0
 11
171.085650822
 21
187.4357106
 31
0.0
  0
LINE
  5
E8
330
1F
100
AcDbEntity
  8
0
  6
Continuous
 62
     7
370
    25
100
AcDbLine
 10
151.085650822
 20
187.4357106
 30
0.0
 11
151.085650822
 21
186.9357106
 31
0.0
  0
LINE
  5
E9
330
1F
100
AcDbEntity
  8
0
  6
Continuous
 62
     7
370
    25
100
AcDbLine
 10
151.085650822
 20
158.4357106
 30
0.0
 11
151.085650822
 21
153.4357106
 31
0.0
  0
LINE
  5
EA
330
1F
100
AcDbEntity
  8
0
  6
Continuous
 62
     7
370
    25
100
AcDbLine
 10
171.085650822
 20
153.4357106
 30
0.0
 11
171.085650822
 21
158.4357106
 31
0.0
  0
LINE
  5
EB
330
1F
100
AcDbEntity
  8
0
  6
Continuous
 62
     7
370
    25
100
AcDbLine
 10
147.585650822
 20
184.4357106
 30
0.0
 11
147.585650822
 21
158.4357106
 31
0.0
  0
LINE
  5
EC
330
1F
100
AcDbEntity
  8
0
  6
Continuous
 62
     7
370
    25
100
AcDbLine
 10
174.585650822
 20
158.4357106
 30
0.0
 11
174.585650822
 21
184.4357106
 31
0.0
  0
LINE
  5
ED
330
1F
100
AcDbEntity
  8
0
  6
Continuous
 62
     7
370
    25
100
AcDbLine
 10
146.085650822
 20
185.4357106
 30
0.0
 11
176.085650822
 21
185.4357106
 31
0.0
  0
LINE
  5
EE
330
1F
100
AcDbEntity
  8
0
  6
Continuous
 62
     7
370
    25
100
AcDbLine
 10
146.085650822
 20
186.9357106
 30
0.0
 11
176.085650822
 21
186.9357106
 31
0.0
  0
LINE
  5
EF
330
1F
100
AcDbEntity
  8
0
  6
Continuous
 62
     7
370
    25
100
AcDbLine
 10
175.085650822
 20
184.4357106
 30
0.0
 11
147.085650822
 21
184.4357106
 31
0.0
  0
LINE
  5
F0
330
1F
100
AcDbEntity
  8
0
  6
Continuous
 62
     7
370
    25
100
AcDbLine
 10
158.3932706235
 20
184.4357106
 30
0.0
 11
158.3932706235
 21
158.4357106
 31
0.0
  0
LINE
  5
F1
330
1F
100
AcDbEntity
  8
0
  6
Continuous
 62
     7
370
    25
100
AcDbLine
 10
159.0911453379
 20
184.4357106
 30
0.0
 11
159.0911453379
 21
158.4357106
 31
0.0
  0
LINE
  5
F2
330
1F
100
AcDbEntity
  8
0
  6
Continuous
 62
     7
370
    25
100
AcDbLine
 10
159.0911453379
 20
158.4357106
 30
0.0
 11
158.3932706235
 21
158.4357106
 31
0.0
  0
LINE
  5
F3
330
1F
100
AcDbEntity
  8
0
  6
Continuous
 62
     7
370
    25
100
AcDbLine
 10
163.0801563061
 20
184.4357106
 30
0.0
 11
163.0801563061
 21
158.4357106
 31
0.0
  0
LINE
  5
F4
330
1F
100
AcDbEntity
  8
0
  6
Continuous
 62
     7
370
    25
100
AcDbLine
 10
163.7780310205
 20
184.4357106
 30
0.0
 11
163.7780310205
 21
158.4357106
 31
0.0
  0
LINE
  5
F5
330
1F
100
AcDbEntity
  8
0
  6
Continuous
 62
     7
370
    25
100
AcDbLine
 10
163.7780310205
 20
158.4357106
 30
0.0
 11
163.0801563061
 21
158.4357106
 31
0.0
  0
LINE
  5
F6
330
1F
100
AcDbEntity
  8
0
  6
Continuous
 62
     7
370
    25
100
AcDbLine
 10
159.0911453379
 20
158.4357106
 30
0.0
 11
163.0801563061
 21
158.4357106
 31
0.0
  0
LINE
  5
F7
330
1F
100
AcDbEntity
  8
0
  6
Continuous
 62
     7
370
    25
100
AcDbLine
 10
154.6448264524
 20
184.4357106
 30
0.0
 11
154.6448264524
 21
158.4357106
 31
0.0
  0
LINE
  5
F8
330
1F
100
AcDbEntity
  8
0
  6
Continuous
 62
     7
370
    25
100
AcDbLine
 10
154.6448264524
 20
158.4357106
 30
0.0
 11
158.3932706235
 21
158.4357106
 31
0.0
  0
LINE
  5
F9
330
1F
100
AcDbEntity
  8
0
  6
Continuous
 62
     7
370
    25
100
AcDbLine
 10
167.5264751916
 20
184.4357106
 30
0.0
 11
167.5264751916
 21
158.4357106
 31
0.0
  0
LINE
  5
FA
330
1F
100
AcDbEntity
  8
0
  6
Continuous
 62
     7
370
    25
100
AcDbLine
 10
163.7780310205
 20
158.4357106
 30
0.0
 11
167.5264751916
 21
158.4357106
 31
0.0
  0
LINE
  5
FB
330
1F
100
AcDbEntity
  8
0
  6
Continuous
 62
     7
370
    25
100
AcDbLine
 10
154.0311257282
 20
184.4357106
 30
0.0
 11
154.0311257282
 21
158.4357106
 31
0.0
  0
LINE
  5
FC
330
1F
100
AcDbEntity
  8
0
  6
Continuous
 62
     7
370
    25
100
AcDbLine
 10
154.6448264524
 20
158.4357106
 30
0.0
 11
154.0311257282
 21
158.4357106
 31
0.0
  0
LINE
  5
FD
330
1F
100
AcDbEntity
  8
0
  6
Continuous
 62
     7
370
    25
100
AcDbLine
 10
168.1401759159
 20
184.4357106
 30
0.0
 11
168.1401759159
 21
158.4357106
 31
0.0
  0
LINE
  5
FE
330
1F
100
AcDbEntity
  8
0
  6
Continuous
 62
     7
370
    25
100
AcDbLine
 10
168.1401759159
 20
158.4357106
 30
0.0
 11
167.5264751916
 21
158.4357106
 31
0.0
  0
LINE
  5
FF
330
1F
100
AcDbEntity
  8
0
  6
Continuous
 62
     7
370
    25
100
AcDbLine
 10
150.9753660424
 20
184.4357106
 30
0.0
 11
150.9753660424
 21
158.4357106
 31
0.0
  0
LINE
  5
100
330
1F
100
AcDbEntity
  8
0
  6
Continuous
 62
     7
370
    25
100
AcDbLine
 10
150.9753660424
 20
158.4357106
 30
0.0
 11
154.0311257282
 21
158.4357106
 31
0.0
  0
LINE
  5
101
330
1F
100
AcDbEntity
  8
0
  6
Continuous
 62
     7
370
    25
100
AcDbLine
 10
171.1959356016
 20
184.4357106
 30
0.0
 11
171.1959356016
 21
158.4357106
 31
0.0
  0
LINE
  5
102
330
1F
100
AcDbEntity
  8
0
  6
Continuous
 62
     7
370
    25
100
AcDbLine
 10
168.1401759159
 20
158.4357106
 30
0.0
 11
171.1959356016
 21
158.4357106
 31
0.0
  0
LINE
  5
103
330
1F
100
AcDbEntity
  8
0
  6
Continuous
 62
     7
370
    25
100
AcDbLine
 10
151.085650822
 20
187.4357106
 30
0.0
 11
171.085650822
 21
187.4357106
 31
0.0
  0
LINE
  5
104
330
1F
100
AcDbEntity
  8
0
  6
Continuous
 62
     7
370
    25
100
AcDbLine
 10
171.085650822
 20
153.4357106
 30
0.0
 11
151.085650822
 21
153.4357106
 31
0.0
  0
LINE
  5
105
330
1F
100
AcDbEntity
  8
0
  6
Continuous
 62
     7
370
    25
100
AcDbLine
 10
150.5198606728
 20
184.4357106
 30
0.0
 11
150.5198606728
 21
158.4357106
 31
0.0
  0
LINE
  5
106
330
1F
100
AcDbEntity
  8
0
  6
Continuous
 62
     7
370
    25
100
AcDbLine
 10
150.9753660424
 20
158.4357106
 30
0.0
 11
150.5198606728
 21
158.4357106
 31
0.0
  0
LINE
  5
107
330
1F
100
AcDbEntity
  8
0
  6
Continuous
 62
     7
370
    25
100
AcDbLine
 10
171.6514409712
 20
184.4357106
 30
0.0
 11
171.6514409712
 21
158.4357106
 31
0.0
  0
LINE
  5
108
330
1F
100
AcDbEntity
  8
0
  6
Continuous
 62
     7
370
    25
100
AcDbLine
 10
171.6514409712
 20
158.4357106
 30
0.0
 11
171.1959356016
 21
158.4357106
 31
0.0
  0
LINE
  5
109
330
1F
100
AcDbEntity
  8
0
  6
Continuous
 62
     7
370
    25
100
AcDbLine
 10
148.5253551887
 20
184.4357106
 30
0.0
 11
148.5253551887
 21
158.4357106
 31
0.0
  0
LINE
  5
10A
330
1F
100
AcDbEntity
  8
0
  6
Continuous
 62
     7
370
    25
100
AcDbLine
 10
148.5253551887
 20
158.4357106
 30
0.0
 11
150.5198606728
 21
158.4357106
 31
0.0
  0
LINE
  5
10B
330
1F
100
AcDbEntity
  8
0
  6
Continuous
 62
     7
370
    25
100
AcDbLine
 10
173.6459464553
 20
184.4357106
 30
0.0
 11
173.6459464553
 21
158.4357106
 31
0.0
  0
LINE
  5
10C
330
1F
100
AcDbEntity
  8
0
  6
Continuous
 62
     7
370
    25
100
AcDbLine
 10
171.6514409712
 20
158.4357106
 30
0.0
 11
173.6459464553
 21
158.4357106
 31
0.0
  0
LINE
  5
10D
330
1F
100
AcDbEntity
  8
0
  6
Continuous
 62
     7
370
    25
100
AcDbLine
 10
148.2829858439
 20
184.4357106
 30
0.0
 11
148.2829858439
 21
158.4357106
 31
0.0
  0
LINE
  5
10E
330
1F
100
AcDbEntity
  8
0
  6
Continuous
 62
     7
370
    25
100
AcDbLine
 10
148.5253551887
 20
158.4357106
 30
0.0
 11
148.2829858439
 21
158.4357106
 31
0.0
  0
LINE
  5
10F
330
1F
100
AcDbEntity
  8
0
  6
Continuous
 62
     7
370
    25
100
AcDbLine
 10
173.8883158001
 20
184.4357106
 30
0.0
 11
173.8883158001
 21
158.4357106
 31
0.0
  0
LINE
  5
110
330
1F
100
AcDbEntity
  8
0
  6
Continuous
 62
     7
370
    25
100
AcDbLine
 10
173.8883158001
 20
158.4357106
 30
0.0
 11
173.6459464553
 21
158.4357106
 31
0.0
  0
LINE
  5
111
330
1F
100
AcDbEntity
  8
0
  6
Continuous
 62
     7
370
    25
100
AcDbLine
 10
147.5903013586
 20
184.4357106
 30
0.0
 11
147.5903013586
 21
158.4357106
 31
0.0
  0
LINE
  5
112
330
1F
100
AcDbEntity
  8
0
  6
Continuous
 62
     7
370
    25
100
AcDbLine
 10
147.5903013586
 20
158.4357106
 30
0.0
 11
148.2829858439
 21
158.4357106
 31
0.0
  0
LINE
  5
113
330
1F
100
AcDbEntity
  8
0
  6
Continuous
 62
     7
370
    25
100
AcDbLine
 10
174.5810002855
 20
184.4357106
 30
0.0
 11
174.5810002855
 21
158.4357106
 31
0.0
  0
LINE
  5
114
330
1F
100
AcDbEntity
  8
0
  6
Continuous
 62
     7
370
    25
100
AcDbLine
 10
173.8883158001
 20
158.4357106
 30
0.0
 11
174.5810002855
 21
158.4357106
 31
0.0
  0
LINE
  5
115
330
1F
100
AcDbEntity
  8
0
  6
Continuous
 62
     7
370
    25
100
AcDbLine
 10
147.5903013586
 20
158.4357106
 30
0.0
 11
147.585650822
 21
158.4357106
 31
0.0
  0
LINE
  5
116
330
1F
100
AcDbEntity
  8
0
  6
Continuous
 62
     7
370
    25
100
AcDbLine
 10
174.585650822
 20
158.4357106
 30
0.0
 11
174.5810002855
 21
158.4357106
 31
0.0
  0
DIMENSION
  5
117
330
1F
100
AcDbEntity
  8
0
  6
Continuous
 62
     7
370
    18
100
AcDbDimension
  2
_D_6
 10
171.085650822
 20
192.7102222678
 30
0.0
 11
160.2574142724
 21
192.7102222678
 31
0.0
 70
   160
  1
Ø<>
 71
     2
 42
-1.0
  3
SLDDIMSTYLE1
100
AcDbAlignedDimension
 13
151.085650822
 23
187.4357106
 33
0.0
 14
171.085650822
 24
187.4357106
 34
0.0
100
AcDbRotatedDimension
  0
DIMENSION
  5
124
330
1F
100
AcDbEntity
  8
0
  6
Continuous
 62
     7
370
    18
100
AcDbDimension
  2
_D_7
 10
175.085650822
 20
198.8177401023
 30
0.0
 11
160.2574142724
 21
198.8177401023
 31
0.0
 70
   160
  1
Ø<>
 71
     2
 42
-1.0
  3
SLDDIMSTYLE1
100
AcDbAlignedDimension
 13
147.085650822
 23
184.4357106
 33
0.0
 14
175.085650822
 24
184.4357106
 34
0.0
100
AcDbRotatedDimension
  0
LINE
  5
131
330
1F
100
AcDbEntity
  8
0
  6
Continuous
 62
     7
370
    25
100
AcDbLine
 10
161.3053067827
 20
116.4960985384
 30
0.0
 11
161.3053067827
 21
116.4992642062
 31
0.0
  0
LINE
  5
132
330
1F
100
AcDbEntity
  8
0
  6
Continuous
 62
     7
370
    25
100
AcDbLine
 10
161.3053067827
 20
116.4992642062
 30
0.0
 11
161.2929923149
 21
116.4992642062
 31
0.0
  0
LINE
  5
133
330
1F
100
AcDbEntity
  8
0
  6
Continuous
 62
     7
370
    25
100
AcDbLine
 10
158.3176212506
 20
116.4992642062
 30
0.0
 11
158.3053067827
 21
116.4992642062
 31
0.0
  0
ARC
  5
134
330
1F
100
AcDbEntity
  8
0
  6
Continuous
 62
     7
370
    25
100
AcDbCircle
 10
159.8053067827
 20
110.6866235191
 30
0.0
 40
6.000000000000004
100
AcDbArc
 50
75.6439057712
 51
104.3560942288
  0
LINE
  5
135
330
1F
100
AcDbEntity
  8
0
  6
Continuous
 62
     7
370
    25
100
AcDbLine
 10
158.3053067827
 20
116.4992642062
 30
0.0
 11
158.3053067827
 21
116.4960985384
 31
0.0
  0
ARC
  5
136
330
1F
100
AcDbEntity
  8
0
  6
Continuous
 62
     7
370
    25
100
AcDbCircle
 10
159.8053067827
 20
110.6866235191
 30
0.0
 40
6.000000000000011
100
AcDbArc
 50
104.4775121859
 51
75.5224878141
  0
CIRCLE
  5
137
330
1F
100
AcDbEntity
  8
0
  6
Continuous
 62
     7
370
    25
100
AcDbCircle
 10
159.8053067827
 20
110.6866235191
 30
0.0
 40
10.0
  0
ARC
  5
138
330
1F
100
AcDbEntity
  8
0
  6
Continuous
 62
     7
370
    25
100
AcDbCircle
 10
159.8053067827
 20
110.6866235191
 30
0.0
 40
4.500000000000005
100
AcDbArc
 50
109.4712206345
 51
70.5287793655
  0
LINE
  5
139
330
1F
100
AcDbEntity
  8
0
  6
Continuous
 62
     7
370
    25
100
AcDbLine
 10
161.3053067827
 20
114.9292642062
 30
0.0
 11
161.3053067827
 21
116.4960985384
 31
0.0
  0
LINE
  5
13A
330
1F
100
AcDbEntity
  8
0
  6
Continuous
 62
     7
370
    25
100
AcDbLine
 10
158.3053067827
 20
116.4960985384
 30
0.0
 11
158.3053067827
 21
114.9292642062
 31
0.0
  0
LINE
  5
13B
330
1F
100
AcDbEntity
  8
0
  6
Continuous
 62
     7
370
    25
100
AcDbLine
 10
161.2929923149
 20
116.4992642062
 30
0.0
 11
158.3176212506
 21
116.4992642062
 31
0.0
  0
ARC
  5
13C
330
1F
100
AcDbEntity
  8
0
  6
Continuous
 62
     7
370
    25
100
AcDbCircle
 10
151.127674052
 20
100.345023537
 30
0.0
 40
2.000000000000023
100
AcDbArc
 50
324.2480226667
 51
135.7519773333
  0
ARC
  5
13D
330
1F
100
AcDbEntity
  8
0
  6
Continuous
 62
     7
370
    25
100
AcDbCircle
 10
148.1139638317
 20
103.9366235191
 30
0.0
 40
2.000000000000079
100
AcDbArc
 50
304.2480226667
 51
115.7519773333
  0
ARC
  5
13E
330
1F
100
AcDbEntity
  8
0
  6
Continuous
 62
     7
370
    25
100
AcDbCircle
 10
146.5104021171
 20
108.3423731206
 30
0.0
 40
2.000000000000018
100
AcDbArc
 50
284.2480226667
 51
95.7519773333
  0
ARC
  5
13F
330
1F
100
AcDbEntity
  8
0
  6
Continuous
 62
     7
370
    25
100
AcDbCircle
 10
146.5104021171
 20
113.0308739176
 30
0.0
 40
2.000000000000027
100
AcDbArc
 50
264.2480226667
 51
75.7519773333
  0
ARC
  5
140
330
1F
100
AcDbEntity
  8
0
  6
Continuous
 62
     7
370
    25
100
AcDbCircle
 10
148.1139638317
 20
117.4366235191
 30
0.0
 40
2.000000000000003
100
AcDbArc
 50
244.2480226667
 51
55.7519773333
  0
ARC
  5
141
330
1F
100
AcDbEntity
  8
0
  6
Continuous
 62
     7
370
    25
100
AcDbCircle
 10
151.127674052
 20
121.0282235012
 30
0.0
 40
2.000000000000013
100
AcDbArc
 50
224.2480226667
 51
35.7519773333
  0
ARC
  5
142
330
1F
100
AcDbEntity
  8
0
  6
Continuous
 62
     7
370
    25
100
AcDbCircle
 10
155.1880348478
 20
123.3724738997
 30
0.0
 40
2.000000000000014
100
AcDbArc
 50
204.2480226667
 51
15.7519773333
  0
ARC
  5
143
330
1F
100
AcDbEntity
  8
0
  6
Continuous
 62
     7
370
    25
100
AcDbCircle
 10
159.8053067827
 20
124.1866235191
 30
0.0
 40
2.000000000000001
100
AcDbArc
 50
184.2480226667
 51
355.7519773333
  0
ARC
  5
144
330
1F
100
AcDbEntity
  8
0
  6
Continuous
 62
     7
370
    25
100
AcDbCircle
 10
164.4225787176
 20
123.3724738997
 30
0.0
 40
2.000000000000026
100
AcDbArc
 50
164.2480226667
 51
335.7519773333
  0
ARC
  5
145
330
1F
100
AcDbEntity
  8
0
  6
Continuous
 62
     7
370
    25
100
AcDbCircle
 10
159.8053067827
 20
110.6866235191
 30
0.0
 40
13.5
100
AcDbArc
 50
58.4960453335
 51
61.5039546665
  0
ARC
  5
146
330
1F
100
AcDbEntity
  8
0
  6
Continuous
 62
     7
370
    25
100
AcDbCircle
 10
159.8053067827
 20
110.6866235191
 30
0.0
 40
13.5
100
AcDbArc
 50
38.4960453335
 51
41.5039546665
  0
ARC
  5
147
330
1F
100
AcDbEntity
  8
0
  6
Continuous
 62
     7
370
    25
100
AcDbCircle
 10
159.8053067827
 20
110.6866235191
 30
0.0
 40
13.50000000000001
100
AcDbArc
 50
18.4960453335
 51
21.5039546665
  0
ARC
  5
148
330
1F
100
AcDbEntity
  8
0
  6
Continuous
 62
     7
370
    25
100
AcDbCircle
 10
173.1002114484
 20
113.0308739176
 30
0.0
 40
2.000000000000006
100
AcDbArc
 50
104.2480226667
 51
275.7519773333
  0
ARC
  5
149
330
1F
100
AcDbEntity
  8
0
  6
Continuous
 62
     7
370
    25
100
AcDbCircle
 10
159.8053067827
 20
110.6866235191
 30
0.0
 40
13.49999999999999
100
AcDbArc
 50
358.4960453335
 51
1.5039546665
  0
ARC
  5
14A
330
1F
100
AcDbEntity
  8
0
  6
Continuous
 62
     7
370
    25
100
AcDbCircle
 10
173.1002114484
 20
108.3423731206
 30
0.0
 40
2.000000000000027
100
AcDbArc
 50
84.2480226667
 51
255.7519773333
  0
ARC
  5
14B
330
1F
100
AcDbEntity
  8
0
  6
Continuous
 62
     7
370
    25
100
AcDbCircle
 10
159.8053067827
 20
110.6866235191
 30
0.0
 40
13.5
100
AcDbArc
 50
338.4960453335
 51
341.5039546665
  0
ARC
  5
14C
330
1F
100
AcDbEntity
  8
0
  6
Continuous
 62
     7
370
    25
100
AcDbCircle
 10
171.4966497338
 20
103.9366235191
 30
0.0
 40
2.000000000000016
100
AcDbArc
 50
64.2480226667
 51
235.7519773333
  0
ARC
  5
14D
330
1F
100
AcDbEntity
  8
0
  6
Continuous
 62
     7
370
    25
100
AcDbCircle
 10
159.8053067827
 20
110.6866235191
 30
0.0
 40
13.50000000000001
100
AcDbArc
 50
318.4960453335
 51
321.5039546665
  0
ARC
  5
14E
330
1F
100
AcDbEntity
  8
0
  6
Continuous
 62
     7
370
    25
100
AcDbCircle
 10
168.4829395135
 20
100.345023537
 30
0.0
 40
2.000000000000045
100
AcDbArc
 50
44.2480226667
 51
215.7519773333
  0
ARC
  5
14F
330
1F
100
AcDbEntity
  8
0
  6
Continuous
 62
     7
370
    25
100
AcDbCircle
 10
159.8053067827
 20
110.6866235191
 30
0.0
 40
13.49999999999999
100
AcDbArc
 50
298.4960453335
 51
301.5039546665
  0
ARC
  5
150
330
1F
100
AcDbEntity
  8
0
  6
Continuous
 62
     7
370
    25
100
AcDbCircle
 10
164.4225787176
 20
98.0007731385
 30
0.0
 40
2.000000000000017
100
AcDbArc
 50
24.2480226667
 51
195.7519773333
  0
ARC
  5
151
330
1F
100
AcDbEntity
  8
0
  6
Continuous
 62
     7
370
    25
100
AcDbCircle
 10
159.8053067827
 20
97.1866235191
 30
0.0
 40
2.000000000000033
100
AcDbArc
 50
4.2480226667
 51
175.7519773333
  0
ARC
  5
152
330
1F
100
AcDbEntity
  8
0
  6
Continuous
 62
     7
370
    25
100
AcDbCircle
 10
155.1880348478
 20
98.0007731385
 30
0.0
 40
2.000000000000006
100
AcDbArc
 50
344.2480226667
 51
155.7519773333
  0
ARC
  5
153
330
1F
100
AcDbEntity
  8
0
  6
Continuous
 62
     7
370
    25
100
AcDbCircle
 10
159.8053067827
 20
110.6866235191
 30
0.0
 40
13.5
100
AcDbArc
 50
98.4960453335
 51
101.5039546665
  0
ARC
  5
154
330
1F
100
AcDbEntity
  8
0
  6
Continuous
 62
     7
370
    25
100
AcDbCircle
 10
159.8053067827
 20
110.6866235191
 30
0.0
 40
13.5
100
AcDbArc
 50
158.4960453335
 51
161.5039546665
  0
ARC
  5
155
330
1F
100
AcDbEntity
  8
0
  6
Continuous
 62
     7
370
    25
100
AcDbCircle
 10
159.8053067827
 20
110.6866235191
 30
0.0
 40
13.50000000000001
100
AcDbArc
 50
138.4960453335
 51
141.5039546665
  0
ARC
  5
156
330
1F
100
AcDbEntity
  8
0
  6
Continuous
 62
     7
370
    25
100
AcDbCircle
 10
159.8053067827
 20
110.6866235191
 30
0.0
 40
13.50000000000002
100
AcDbArc
 50
118.4960453335
 51
121.5039546665
  0
ARC
  5
157
330
1F
100
AcDbEntity
  8
0
  6
Continuous
 62
     7
370
    25
100
AcDbCircle
 10
159.8053067827
 20
110.6866235191
 30
0.0
 40
13.5
100
AcDbArc
 50
78.4960453335
 51
81.5039546665
  0
ARC
  5
158
330
1F
100
AcDbEntity
  8
0
  6
Continuous
 62
     7
370
    25
100
AcDbCircle
 10
168.4829395135
 20
121.0282235012
 30
0.0
 40
1.999999999999999
100
AcDbArc
 50
144.2480226667
 51
315.7519773333
  0
ARC
  5
159
330
1F
100
AcDbEntity
  8
0
  6
Continuous
 62
     7
370
    25
100
AcDbCircle
 10
171.4966497338
 20
117.4366235191
 30
0.0
 40
2.000000000000016
100
AcDbArc
 50
124.2480226667
 51
295.7519773333
  0
ARC
  5
15A
330
1F
100
AcDbEntity
  8
0
  6
Continuous
 62
     7
370
    25
100
AcDbCircle
 10
159.8053067827
 20
110.6866235191
 30
0.0
 40
13.49999999999999
100
AcDbArc
 50
178.4960453335
 51
181.5039546665
  0
ARC
  5
15B
330
1F
100
AcDbEntity
  8
0
  6
Continuous
 62
     7
370
    25
100
AcDbCircle
 10
159.8053067827
 20
110.6866235191
 30
0.0
 40
13.50000000000001
100
AcDbArc
 50
198.4960453335
 51
201.5039546665
  0
ARC
  5
15C
330
1F
100
AcDbEntity
  8
0
  6
Continuous
 62
     7
370
    25
100
AcDbCircle
 10
159.8053067827
 20
110.6866235191
 30
0.0
 40
13.50000000000001
100
AcDbArc
 50
218.4960453335
 51
221.5039546665
  0
ARC
  5
15D
330
1F
100
AcDbEntity
  8
0
  6
Continuous
 62
     7
370
    25
100
AcDbCircle
 10
159.8053067827
 20
110.6866235191
 30
0.0
 40
13.50000000000001
100
AcDbArc
 50
238.4960453335
 51
241.5039546665
  0
ARC
  5
15E
330
1F
100
AcDbEntity
  8
0
  6
Continuous
 62
     7
370
    25
100
AcDbCircle
 10
159.8053067827
 20
110.6866235191
 30
0.0
 40
13.5
100
AcDbArc
 50
278.4960453335
 51
281.5039546665
  0
ARC
  5
15F
330
1F
100
AcDbEntity
  8
0
  6
Continuous
 62
     7
370
    25
100
AcDbCircle
 10
159.8053067827
 20
110.6866235191
 30
0.0
 40
13.50000000000001
100
AcDbArc
 50
258.4960453335
 51
261.5039546665
  0
CIRCLE
  5
160
330
1F
100
AcDbEntity
  8
0
  6
Continuous
 62
     7
370
    25
100
AcDbCircle
 10
159.8053067827
 20
110.6866235191
 30
0.0
 40
15.00000000000003
  0
CIRCLE
  5
161
330
1F
100
AcDbEntity
  8
0
  6
Continuous
 62
     7
370
    25
100
AcDbCircle
 10
159.8053067827
 20
110.6866235191
 30
0.0
 40
14.0
  0
DIMENSION
  5
162
330
1F
100
AcDbEntity
  8
0
  6
Continuous
 62
     7
370
    18
100
AcDbDimension
  2
_D_8
 10
186.776831391
 20
116.4992642062
 30
0.0
 11
186.776831391
 21
115.1827467597
 31
0.0
 70
   160
  1
<>
 71
     2
 42
-1.0
  3
SLDDIMSTYLE1
100
AcDbAlignedDimension
 13
161.3053067827
 23
114.9292642062
 33
0.0
 14
161.3053067827
 24
116.4992642062
 34
0.0
 50
90.0
100
AcDbRotatedDimension
  0
DIMENSION
  5
16E
330
1F
100
AcDbEntity
  8
0
  6
Continuous
 62
     7
370
    18
100
AcDbDimension
  2
_D_9
 10
158.3053067827
 20
131.907341417
 30
0.0
 11
159.3773678952
 21
131.907341417
 31
0.0
 70
   160
  1
<>
 71
     2
 42
-1.0
  3
SLDDIMSTYLE1
100
AcDbAlignedDimension
 13
161.3053067827
 23
116.4992642062
 33
0.0
 14
158.3053067827
 24
116.4992642062
 34
0.0
100
AcDbRotatedDimension
  0
DIMENSION
  5
17A
330
1F
100
AcDbEntity
  8
0
  6
Continuous
 62
     7
370
    18
100
AcDbDimension
  2
_D_10
 10
159.8053067827
 20
110.6866235191
 30
0.0
 11
133.3271590934
 21
110.6866335191
 31
0.0
 70
   164
  1
<>
 71
     1
 42
-1.0
  3
SLDDIMSTYLE2
100
AcDbRadialDimension
 15
155.3053067827
 25
110.6866235191
 35
0.0
 40
0.0
  0
DIMENSION
  5
183
330
1F
100
AcDbEntity
  8
0
  6
Continuous
 62
     7
370
    18
100
AcDbDimension
  2
_D_11
 10
159.8053067827
 20
110.6866235191
 30
0.0
 11
187.7190961301
 21
94.5706054988
 31
0.0
 70
   164
  1
<>
 71
     1
 42
-1.0
  3
SLDDIMSTYLE2
100
AcDbRadialDimension
 15
165.0014592055
 25
107.6866235191
 35
0.0
 40
0.0
  0
INSERT
  5
196
330
1F
100
AcDbEntity
  8
0
  6
Continuous
 62
     7
370
    18
100
AcDbBlockReference
  2
SW_CENTERMARKSYMBOL_0
 10
159.8053067827
 20
110.6866235191
 30
0.0
  0
ENDSEC
  0
SECTION
  2
OBJECTS
  0
DICTIONARY
  5
C
330
0
100
AcDbDictionary
281
     1
  3
ACAD_GROUP
350
D
  3
ACAD_LAYOUT
350
1A
  3
ACAD_MLINESTYLE
350
17
  3
ACAD_PLOTSETTINGS
350
19
  3
ACAD_PLOTSTYLENAME
350
E
  3
ACAD_SCALELIST
350
47
  3
DWGPROPS
350
197
  0
DICTIONARY
  5
D
102
{ACAD_REACTORS
330
C
102
}
330
C
100
AcDbDictionary
281
     1
  0
DICTIONARY
  5
1A
102
{ACAD_REACTORS
330
C
102
}
330
C
100
AcDbDictionary
281
     1
  3
Layout1
350
1E
  3
Layout2
350
26
  3
Model
350
22
  0
DICTIONARY
  5
17
102
{ACAD_REACTORS
330
C
102
}
330
C
100
AcDbDictionary
281
     1
  3
Standard
350
18
  0
DICTIONARY
  5
19
102
{ACAD_REACTORS
330
C
102
}
330
C
100
AcDbDictionary
281
     1
  0
ACDBDICTIONARYWDFLT
  5
E
102
{ACAD_REACTORS
330
C
102
}
330
C
100
AcDbDictionary
281
     1
  3
Normal
350
F
100
AcDbDictionaryWithDefault
340
F
  0
DICTIONARY
  5
47
102
{ACAD_REACTORS
330
C
102
}
330
C
100
AcDbDictionary
281
     1
  3
A0
350
48
  3
A1
350
49
  3
A2
350
4A
  3
A3
350
4B
  3
A4
350
4C
  3
A5
350
4D
  3
A6
350
4E
  3
A7
350
4F
  3
A8
350
50
  3
A9
350
51
  3
B0
350
52
  3
B1
350
53
  3
B2
350
54
  3
B3
350
55
  3
B4
350
56
  3
B5
350
57
  3
B6
350
58
  0
XRECORD
  5
197
102
{ACAD_REACTORS
330
C
102
}
330
C
100
AcDbXrecord
280
     1
  1
DWGPROPS COOKIE
  2

  3

  4

  6

  7

  8
alber
  9

300
=
301
=
302
=
303
=
304
=
305
=
306
=
307
=
308
=
309
=
 40
0.0
 41
2460802.777894433
 42
2460802.777895347
  1

 90
        0
  0
LAYOUT
  5
1E
102
{ACAD_REACTORS
330
1A
102
}
330
1A
100
AcDbPlotSettings
  1

  2
none_device
  4

  6

 40
0.0
 41
0.0
 42
0.0
 43
0.0
 44
0.0
 45
0.0
 46
0.0
 47
0.0
 48
0.0
 49
0.0
140
0.0
141
0.0
142
1.0
143
1.0
 70
   688
 72
     1
 73
     0
 74
     5
  7

 75
    16
147
1.0
148
0.0
149
0.0
100
AcDbLayout
  1
Layout1
 70
     1
 71
     1
 10
0.0
 20
0.0
 11
420.0
 21
297.0
 12
0.0
 22
0.0
 32
0.0
 14
1.0000000000E+20
 24
1.0000000000E+20
 34
1.0000000000E+20
 15
-1.0000000000E+20
 25
-1.0000000000E+20
 35
-1.0000000000E+20
146
0.0
 13
0.0
 23
0.0
 33
0.0
 16
1.0
 26
0.0
 36
0.0
 17
0.0
 27
1.0
 37
0.0
 76
     0
330
1B
  0
LAYOUT
  5
26
102
{ACAD_REACTORS
330
1A
102
}
330
1A
100
AcDbPlotSettings
  1

  2
none_device
  4

  6

 40
0.0
 41
0.0
 42
0.0
 43
0.0
 44
0.0
 45
0.0
 46
0.0
 47
0.0
 48
0.0
 49
0.0
140
0.0
141
0.0
142
1.0
143
1.0
 70
   688
 72
     1
 73
     0
 74
     5
  7

 75
    16
147
1.0
148
0.0
149
0.0
100
AcDbLayout
  1
Layout2
 70
     1
 71
     2
 10
0.0
 20
0.0
 11
0.0
 21
0.0
 12
0.0
 22
0.0
 32
0.0
 14
0.0
 24
0.0
 34
0.0
 15
0.0
 25
0.0
 35
0.0
146
0.0
 13
0.0
 23
0.0
 33
0.0
 16
1.0
 26
0.0
 36
0.0
 17
0.0
 27
1.0
 37
0.0
 76
     0
330
23
  0
LAYOUT
  5
22
102
{ACAD_REACTORS
330
1A
102
}
330
1A
100
AcDbPlotSettings
  1

  2
none_device
  4
Letter_(8.50_x_11.00_Inches)
  6

 40
6.35
 41
6.35
 42
6.35000508
 43
6.35000508
 44
215.9
 45
279.4
 46
0.0
 47
0.0
 48
0.0
 49
0.0
140
0.0
141
0.0
142
1.0
143
1.0
 70
  1712
 72
     1
 73
     0
 74
     0
  7

 75
     0
147
1.0
148
0.0
149
0.0
100
AcDbLayout
  1
Model
 70
     1
 71
     0
 10
0.0
 20
0.0
 11
279.4
 21
215.9
 12
0.0
 22
0.0
 32
0.0
 14
0.0
 24
0.0
 34
0.0
 15
279.4
 25
215.9
 35
0.0
146
0.0
 13
0.0
 23
0.0
 33
0.0
 16
1.0
 26
0.0
 36
0.0
 17
0.0
 27
1.0
 37
0.0
 76
     0
330
1F
331
29
  0
MLINESTYLE
  5
18
102
{ACAD_REACTORS
330
17
102
}
330
17
100
AcDbMlineStyle
  2
Standard
 70
     0
  3

 62
   256
 51
90.0
 52
90.0
 71
     2
 49
0.5
 62
   256
  6
BYLAYER
 49
-0.5
 62
   256
  6
BYLAYER
  0
ACDBPLACEHOLDER
  5
F
102
{ACAD_REACTORS
330
E
102
}
330
E
  0
SCALE
  5
48
102
{ACAD_REACTORS
330
47
102
}
330
47
100
AcDbScale
 70
     0
300
1:1
140
1.0
141
1.0
290
     1
  0
SCALE
  5
49
102
{ACAD_REACTORS
330
47
102
}
330
47
100
AcDbScale
 70
     0
300
1:2
140
1.0
141
2.0
290
     0
  0
SCALE
  5
4A
102
{ACAD_REACTORS
330
47
102
}
330
47
100
AcDbScale
 70
     0
300
1:4
140
1.0
141
4.0
290
     0
  0
SCALE
  5
4B
102
{ACAD_REACTORS
330
47
102
}
330
47
100
AcDbScale
 70
     0
300
1:5
140
1.0
141
5.0
290
     0
  0
SCALE
  5
4C
102
{ACAD_REACTORS
330
47
102
}
330
47
100
AcDbScale
 70
     0
300
1:8
140
1.0
141
8.0
290
     0
  0
SCALE
  5
4D
102
{ACAD_REACTORS
330
47
102
}
330
47
100
AcDbScale
 70
     0
300
1:10
140
1.0
141
10.0
290
     0
  0
SCALE
  5
4E
102
{ACAD_REACTORS
330
47
102
}
330
47
100
AcDbScale
 70
     0
300
1:16
140
1.0
141
16.0
290
     0
  0
SCALE
  5
4F
102
{ACAD_REACTORS
330
47
102
}
330
47
100
AcDbScale
 70
     0
300
1:20
140
1.0
141
20.0
290
     0
  0
SCALE
  5
50
102
{ACAD_REACTORS
330
47
102
}
330
47
100
AcDbScale
 70
     0
300
1:30
140
1.0
141
30.0
290
     0
  0
SCALE
  5
51
102
{ACAD_REACTORS
330
47
102
}
330
47
100
AcDbScale
 70
     0
300
1:40
140
1.0
141
40.0
290
     0
  0
SCALE
  5
52
102
{ACAD_REACTORS
330
47
102
}
330
47
100
AcDbScale
 70
     0
300
1:50
140
1.0
141
50.0
290
     0
  0
SCALE
  5
53
102
{ACAD_REACTORS
330
47
102
}
330
47
100
AcDbScale
 70
     0
300
1:100
140
1.0
141
100.0
290
     0
  0
SCALE
  5
54
102
{ACAD_REACTORS
330
47
102
}
330
47
100
AcDbScale
 70
     0
300
2:1
140
2.0
141
1.0
290
     0
  0
SCALE
  5
55
102
{ACAD_REACTORS
330
47
102
}
330
47
100
AcDbScale
 70
     0
300
4:1
140
4.0
141
1.0
290
     0
  0
SCALE
  5
56
102
{ACAD_REACTORS
330
47
102
}
330
47
100
AcDbScale
 70
     0
300
8:1
140
8.0
141
1.0
290
     0
  0
SCALE
  5
57
102
{ACAD_REACTORS
330
47
102
}
330
47
100
AcDbScale
 70
     0
300
10:1
140
10.0
141
1.0
290
     0
  0
SCALE
  5
58
102
{ACAD_REACTORS
330
47
102
}
330
47
100
AcDbScale
 70
     0
300
100:1
140
100.0
141
1.0
290
     0
  0
ENDSEC
  0
EOF
